<svg width="101" height="110" viewBox="0 0 101 110" fill="none" xmlns="http://www.w3.org/2000/svg">
<path d="M19.3156 64.8085C19.3156 74.5309 27.2312 82.4464 36.9535 82.4464C45.0196 82.4464 52.0317 77.0045 54.0321 69.1965C54.0751 69.0244 54.1827 68.8954 54.3332 68.8093C54.4838 68.7233 54.6559 68.7018 54.8279 68.7448C55 68.7878 55.1291 68.8954 55.2151 69.0459C55.3012 69.1965 55.3227 69.3686 55.2797 69.5406C53.1287 77.9079 45.6003 83.7585 36.932 83.7585C26.4998 83.7585 18.0035 75.2622 18.0035 64.83C18.0035 54.3979 26.4998 45.9016 36.932 45.9016C41.449 45.9016 45.8154 47.5148 49.257 50.4616C52.634 53.3654 54.914 57.3877 55.6238 61.7542C55.6238 61.7972 55.6238 61.8187 55.6238 61.8617C55.6238 62.1844 55.4087 62.4425 55.0861 62.507C54.914 62.5285 54.7419 62.4855 54.6129 62.3995C54.4838 62.2919 54.3763 62.1413 54.3547 61.9693C53.6879 57.8825 51.58 54.1613 48.4181 51.4511C45.2347 48.7194 41.1479 47.2137 36.9535 47.2137C27.2312 47.1707 19.3156 55.0862 19.3156 64.8085Z" fill="black"/>
<path d="M36.9536 53.0642C30.4792 53.0642 25.2093 58.3341 25.2093 64.8084C25.2093 71.2828 30.4792 76.5527 36.9536 76.5527C43.428 76.5527 48.6978 71.2828 48.6978 64.8084C48.6978 58.3341 43.428 53.0642 36.9536 53.0642ZM36.9536 75.2621C31.189 75.2621 26.4999 70.573 26.4999 64.8084C26.4999 59.0439 31.189 54.3548 36.9536 54.3548C42.7181 54.3548 47.4072 59.0439 47.4072 64.8084C47.4072 70.573 42.7181 75.2621 36.9536 75.2621Z" fill="black"/>
<path d="M36.9534 59.4954C34.0281 59.4954 31.6405 61.8829 31.6405 64.8082C31.6405 67.7335 34.0281 70.1211 36.9534 70.1211C39.8787 70.1211 42.2663 67.7335 42.2663 64.8082C42.2663 61.8829 39.8787 59.4954 36.9534 59.4954ZM36.9534 68.8305C34.7379 68.8305 32.9311 67.0237 32.9311 64.8082C32.9311 62.5927 34.7379 60.7859 36.9534 60.7859C39.1689 60.7859 40.9757 62.5927 40.9757 64.8082C40.9757 67.0237 39.1689 68.8305 36.9534 68.8305Z" fill="black"/>
<path d="M90.1252 67.8843L89.738 67.5831V56.8929C89.738 56.5272 89.4584 56.2476 89.0927 56.2476C88.7486 56.2476 88.4474 56.5272 88.4474 56.8929V66.6797L87.0278 65.9484C84.9844 64.8944 82.8119 64.1631 80.5319 63.7759L79.7145 63.6469V38.201C79.7145 37.4912 79.1338 36.9104 78.424 36.9104H72.8099L84.081 21.5956L95.1584 36.9104H89.738C89.0282 36.9104 88.4474 37.4912 88.4474 38.201V49.3645C88.4474 49.7302 88.7486 50.0098 89.0927 50.0098C89.4584 50.0098 89.738 49.7302 89.738 49.3645V38.201H95.1584C95.6531 38.201 96.0833 37.9214 96.2984 37.4912C96.5135 37.061 96.4705 36.5448 96.1909 36.1361L85.1134 20.8213C84.8768 20.4986 84.4896 20.2835 84.081 20.2835C83.6723 20.2835 83.2851 20.4771 83.0485 20.8213L71.799 36.1146C71.4979 36.5018 71.4548 37.018 71.6914 37.4697C71.9065 37.8999 72.3582 38.1795 72.853 38.1795H78.467V63.4748L77.4775 63.4533C76.6387 63.4318 75.7783 63.4533 74.9179 63.5178L73.9284 63.6038L73.8639 62.6144C73.7994 61.668 73.7349 60.8076 73.6273 59.9687C73.4767 58.8072 72.4873 57.9468 71.3043 57.9468H63.3242C62.851 57.9468 62.4638 57.6457 62.3133 57.194C61.797 55.4947 61.1302 53.8385 60.2699 52.2898C60.0548 51.8811 60.1193 51.3649 60.4419 51.0422L66.0774 45.4067C66.8948 44.5679 67.0024 43.2558 66.2925 42.3309C65.7763 41.6641 65.2171 40.9758 64.6148 40.2875L64.3782 40.0078V17.896H69.7986C70.2933 17.896 70.7235 17.6164 70.9386 17.1862C71.1537 16.756 71.1107 16.2397 70.8311 15.8311L59.7321 0.53774C59.4955 0.215096 59.1083 0 58.6997 0C58.291 0 57.9038 0.193586 57.6457 0.53774L46.3747 15.8311C46.095 16.2182 46.052 16.7345 46.2671 17.1862C46.4822 17.6164 46.9339 17.896 47.4071 17.896H53.0211V39.0399L50.6981 41.3629C50.3755 41.6856 49.8592 41.7501 49.4505 41.535C47.8803 40.6961 46.2241 40.0078 44.5464 39.4916C44.0947 39.3625 43.7935 38.9539 43.7935 38.4806V30.5006C43.7935 29.3176 42.9116 28.3281 41.7716 28.1776C38.5667 27.7474 35.3187 27.7474 32.1138 28.1776C30.9523 28.3281 30.0919 29.3176 30.0919 30.5006V38.4806C30.0919 38.9539 29.7908 39.341 29.3391 39.4916C27.6398 40.0078 25.9836 40.6746 24.4349 41.535C24.0047 41.7501 23.51 41.6856 23.1873 41.3414L17.5518 35.7059C16.7129 34.867 15.4009 34.781 14.476 35.4908C11.9163 37.4697 9.61478 39.7497 7.6359 42.3094C6.92609 43.2343 7.01212 44.5679 7.851 45.3852L13.4865 51.0207C13.8092 51.3434 13.8952 51.8596 13.6586 52.2683C12.8197 53.817 12.1314 55.4732 11.6367 57.1725C11.5076 57.6242 11.0989 57.9253 10.6257 57.9253H2.64568C1.46265 57.9253 0.473211 58.8072 0.322644 59.9472C0.107548 61.5389 0 63.1737 0 64.7869C0 66.4001 0.107548 68.0133 0.322644 69.6265C0.473211 70.788 1.46265 71.6484 2.64568 71.6484H10.6257C11.0989 71.6484 11.4861 71.9496 11.6367 72.4013C12.1529 74.1005 12.8197 75.7568 13.6801 77.3054C13.8952 77.7141 13.8307 78.2304 13.508 78.553L7.851 84.2315C7.01212 85.0704 6.92609 86.3825 7.6359 87.3074C9.61478 89.867 11.8948 92.1686 14.476 94.1475C15.4009 94.8573 16.7129 94.7712 17.5518 93.9324L23.1873 88.2968C23.51 87.9742 24.0262 87.8882 24.4349 88.1248C26.0051 88.9636 27.6398 89.652 29.3391 90.1682C29.7908 90.2972 30.0919 90.7059 30.0919 91.1791V99.1592C30.0919 100.342 30.9523 101.332 32.1138 101.482C35.2972 101.891 38.5882 101.891 41.7716 101.482C42.9331 101.332 43.7935 100.342 43.7935 99.1592V91.1791C43.7935 90.7059 44.0947 90.3187 44.5464 90.1682C46.2456 89.652 47.9018 88.9636 49.472 88.1248C49.6441 88.0387 49.8162 87.9957 49.9883 87.9957C50.2679 87.9957 50.526 88.1033 50.7196 88.2968L55.6668 93.244L55.7313 93.4376C58.9363 102.278 67.3895 108.215 76.7677 108.215C89.0927 108.215 99.1377 98.1697 99.1377 85.8448C99.1592 78.7896 95.7822 72.1001 90.1252 67.8843ZM47.4286 16.6054L58.6997 1.29058L69.7771 16.6054H64.3567C63.6469 16.6054 63.0661 17.1862 63.0661 17.896V38.5882L61.4529 37.1686C60.7861 36.5878 60.1193 36.0286 59.4525 35.5123C58.5276 34.8025 57.194 34.8885 56.3766 35.7274L54.3547 37.7493V17.896C54.3547 17.1862 53.774 16.6054 53.0641 16.6054H47.4286ZM54.4408 84.5972C54.4193 85.0059 54.3977 85.4146 54.3977 85.8232C54.3977 86.4685 54.4192 87.1353 54.4838 87.8236L54.7204 90.4693L51.623 87.3719C50.8917 86.6406 49.7732 86.4685 48.8483 86.9632C47.3641 87.7591 45.7939 88.4044 44.1807 88.8991C43.1697 89.2002 42.5029 90.1037 42.5029 91.1361V99.1162C42.5029 99.6539 42.1158 100.084 41.5995 100.17C40.0508 100.364 38.5022 100.471 36.9535 100.471C35.4048 100.471 33.8346 100.364 32.2859 100.17C31.7697 100.106 31.3825 99.6539 31.3825 99.1377V91.1576C31.3825 90.1252 30.7157 89.2218 29.7047 88.9206C28.0915 88.4259 26.5213 87.7806 25.0372 86.9848C24.693 86.7912 24.3058 86.7051 23.9187 86.7051C23.2949 86.7051 22.7141 86.9417 22.2624 87.3934L16.6269 93.029C16.2612 93.3946 15.659 93.4376 15.2503 93.1365C12.7767 91.2437 10.5612 89.0067 8.64685 86.5331C8.32421 86.1244 8.36723 85.5221 8.73289 85.1564L14.3684 79.5209C15.0997 78.7896 15.2718 77.6711 14.7771 76.7462C13.9812 75.262 13.3359 73.6918 12.8412 72.0786C12.5401 71.0677 11.6367 70.4009 10.6042 70.4009H2.64568C2.10794 70.4009 1.67775 70.0137 1.61322 69.4975C1.41963 67.9488 1.31208 66.3786 1.31208 64.8299C1.31208 63.2812 1.41963 61.711 1.61322 60.1623C1.67775 59.6461 2.12945 59.2589 2.64568 59.2589H10.6257C11.6582 59.2589 12.5616 58.5921 12.8627 57.5812C13.3575 55.9679 14.0027 54.3977 14.7986 52.9136C15.2933 51.9887 15.1427 50.8702 14.3899 50.1388L8.7544 44.5033C8.38874 44.1377 8.34572 43.5354 8.66836 43.1267C10.5612 40.6531 12.7767 38.4376 15.2503 36.5448C15.659 36.2221 16.2612 36.2652 16.6269 36.6308L22.2624 42.2663C22.9937 42.9977 24.1122 43.1697 25.0372 42.675C26.5213 41.8792 28.0915 41.2339 29.7047 40.7392C30.7157 40.438 31.3825 39.5346 31.3825 38.5022V30.5221C31.3825 30.0059 31.7697 29.5542 32.2859 29.4681C35.3833 29.0594 38.5237 29.0594 41.5995 29.4681C42.1158 29.5327 42.5029 29.9844 42.5029 30.5221V38.5022C42.5029 39.5346 43.1697 40.438 44.1807 40.7392C45.7939 41.2339 47.3641 41.8792 48.8483 42.675C49.7732 43.1697 50.8917 43.0192 51.623 42.2663L57.2585 36.6308C57.6242 36.2652 58.2264 36.2221 58.6351 36.5233C61.1087 38.4161 63.3242 40.6531 65.2386 43.1267C65.5612 43.5354 65.5182 44.1377 65.1525 44.5033L59.517 50.1388C58.7857 50.8702 58.6136 51.9887 59.1083 52.9136C59.9042 54.3977 60.5495 55.9679 61.0442 57.5812C61.3453 58.5921 62.2487 59.2589 63.2812 59.2589H71.2613C71.7775 59.2589 72.2292 59.6461 72.2937 60.1623C72.4013 61.0872 72.5088 62.0336 72.5518 63.0231L72.5948 63.8404L71.799 64.0125C62.1197 66.2065 55 74.7673 54.4408 84.5972ZM76.7892 106.903C65.174 106.903 55.7098 97.4384 55.7098 85.8232C55.7098 74.2081 65.174 64.7439 76.7892 64.7439C88.4044 64.7439 97.8686 74.2081 97.8686 85.8232C97.8686 97.4384 88.4044 106.903 76.7892 106.903Z" fill="black"/>
<path d="M53.9889 89.738L54.7202 90.4693L54.4836 87.8236C54.4191 87.1568 54.3976 86.49 54.3976 85.8232C54.3976 85.4145 54.3976 85.0059 54.4406 84.5972C54.4406 84.6402 54.4406 84.6617 54.4406 84.7047C54.3116 87.9742 54.8923 90.6199 54.8923 90.6199L53.9889 89.738Z" fill="black"/>
<path d="M76.7893 110C90.1418 110 100.966 99.1755 100.966 85.823C100.966 72.4705 90.1418 61.6462 76.7893 61.6462C63.4368 61.6462 52.6125 72.4705 52.6125 85.823C52.6125 99.1755 63.4368 110 76.7893 110Z" fill="#F28E00"/>
<path d="M93.416 83.5004C93.3085 83.6509 93.1579 83.737 93.0074 83.7585C92.8353 83.78 92.6632 83.737 92.5341 83.6509C92.4051 83.5434 92.2975 83.3928 92.276 83.2207C91.6738 79.6071 89.8024 76.2732 86.9847 73.8641C84.1454 71.4335 80.5318 70.0999 76.7891 70.0999C68.1208 70.0999 61.0871 77.155 61.0871 85.8019C61.0871 94.4488 68.1423 101.504 76.7891 101.504C80.2092 101.504 83.4571 100.428 86.1888 98.385C88.8345 96.4061 90.8134 93.5884 91.8028 90.448C91.9104 90.1038 92.276 89.9102 92.6202 90.0178C92.7923 90.0608 92.9213 90.1899 93.0074 90.3404C93.0934 90.491 93.0934 90.6631 93.0504 90.8351C91.9964 94.2337 89.8454 97.2665 86.9847 99.4175C84.0163 101.633 80.5103 102.794 76.8106 102.794C67.4325 102.794 59.8181 95.1801 59.8181 85.8019C59.8181 76.4237 67.4325 68.8093 76.8106 68.8093C80.8544 68.8093 84.7692 70.2505 87.8451 72.8961C90.8779 75.4988 92.9213 79.0909 93.5666 83.0057C93.5666 83.1992 93.5236 83.3713 93.416 83.5004Z" fill="black"/>
</svg>
