<svg width="114" height="114" viewBox="0 0 114 114" fill="none" xmlns="http://www.w3.org/2000/svg">
<g clip-path="url(#clip0_167_923)">
<path d="M61.9875 66.218C61.8762 66.0844 61.698 66.0176 61.5199 66.0176H58.3582L58.2691 65.127C57.5344 58.4918 52.2129 53.1481 45.5777 52.4356L44.6871 52.3465V43.8411C44.6871 43.4848 44.3754 43.1731 44.0191 43.1731C43.6629 43.1731 43.3512 43.4848 43.3512 43.8411V48.4946L42.4383 48.5614C38.2301 48.9176 34.2445 50.7879 31.1941 53.8383C27.743 57.2895 25.8504 61.8317 25.8504 66.6633C25.8504 71.495 27.743 76.0372 31.1941 79.4883C34.6453 82.9395 39.1875 84.8321 44.0191 84.8321C48.8508 84.8321 53.4152 82.9395 56.8441 79.4883C60.2953 76.0372 62.1879 71.495 62.1879 66.6633V66.6411C62.1656 66.4407 62.0766 66.3071 61.9875 66.218ZM44.6426 53.6379L45.8004 53.7938C51.5227 54.5954 56.0648 59.1376 56.8441 64.8376L57 65.9731H48.6504L48.4277 65.2606C47.9602 63.7911 46.8023 62.611 45.3551 62.1879L44.6426 61.9653V53.6379ZM43.9969 63.3458C45.8449 63.3458 47.3367 64.8375 47.3367 66.6856C47.3367 68.5336 45.8449 70.0254 43.9969 70.0254C42.1488 70.0254 40.657 68.5336 40.657 66.6856C40.6793 64.8375 42.1934 63.3458 43.9969 63.3458ZM60.7406 68.4223C60.3621 72.2075 58.6477 75.8145 55.8867 78.5532C52.6805 81.7594 48.4723 83.5184 43.9969 83.5184C39.5215 83.5184 35.291 81.7594 32.107 78.5532C28.9008 75.3247 27.1418 71.0942 27.1418 66.6633C27.1418 62.1879 28.9008 57.9575 32.107 54.7735C34.8457 52.0348 38.4305 50.2981 42.2156 49.8973L43.3289 49.786V61.9653L42.6164 62.1879C40.6793 62.7891 39.3211 64.6149 39.3211 66.6411C39.3211 68.6672 40.6793 70.493 42.6164 71.0942L43.3289 71.3168V76.3711C43.3289 76.7274 43.6406 77.0391 43.9969 77.0391C44.3531 77.0391 44.6648 76.7274 44.6648 76.3711V71.3391L45.3773 71.1165C46.8469 70.6489 48.027 69.4911 48.45 68.0438L48.6727 67.3313H60.8519L60.7406 68.4223Z" fill="black"/>
<path d="M88.6395 57.668C88.0828 57.668 87.5262 57.6903 86.925 57.7348L86.0789 57.8016L85.8785 56.9555C85.3664 54.7958 84.7652 52.8364 84.0082 50.9438C83.9414 50.7657 83.8078 50.6321 83.652 50.5653C83.4961 50.4985 83.318 50.4985 83.1621 50.5653C82.8059 50.7211 82.6277 51.0997 82.7613 51.4114V51.4336C83.4516 53.1704 84.0305 55.0184 84.498 56.9555L84.743 57.9575L83.7188 58.1579C82.8949 58.336 82.0711 58.5364 81.2918 58.8036L80.2676 59.1376L80.0227 58.0688C78.8871 53.3262 76.8387 48.8731 73.8996 44.843L73.3875 44.1528L76.9055 40.6348L77.7293 41.4586C78.2637 41.993 78.9984 42.3047 79.7777 42.3047C80.557 42.3047 81.2918 42.0153 81.8262 41.4586L83.0953 40.1895C83.6297 39.6551 83.9414 38.9204 83.9414 38.1411C83.9414 37.3618 83.652 36.6493 83.0953 36.0926L74.1445 27.1641C73.6102 26.6297 72.8754 26.318 72.0961 26.318C71.3168 26.318 70.582 26.6075 70.0477 27.1641L68.7785 28.4333C67.6652 29.5688 67.6652 31.3946 68.7785 32.5079L69.6023 33.3317L66.0176 36.9165L65.3273 36.4266C61.1414 33.4653 56.5324 31.4614 51.634 30.4372L50.8324 30.259V25.561L52.0348 25.7836C54.9293 26.3403 57.8238 27.2532 60.6516 28.4778C60.9855 28.6336 61.3863 28.4778 61.5422 28.1215C61.6312 27.9211 61.609 27.743 61.5422 27.6317C61.4754 27.4536 61.3418 27.32 61.1637 27.2532C58.1578 25.9395 54.9516 24.9598 51.634 24.3586L50.8102 24.2028V20.195L51.5227 19.9723C52.725 19.5938 53.5711 18.4583 53.5711 17.2114V16.254C53.5711 15.8977 53.2594 15.586 52.9031 15.586C52.5469 15.586 52.2352 15.8977 52.2352 16.254V17.2336C52.2352 18.102 51.5449 18.7922 50.6766 18.7922H37.2504C36.382 18.7922 35.6918 18.102 35.6918 17.2336V7.21411C35.6918 6.34575 36.382 5.65552 37.2504 5.65552H50.6766C51.5449 5.65552 52.2352 6.34575 52.2352 7.21411V8.46099C52.2352 8.81724 52.5469 9.12896 52.9031 9.12896C53.2594 9.12896 53.5711 8.81724 53.5711 8.46099V7.21411C53.5711 5.61099 52.2797 4.31958 50.6766 4.31958H37.2504C35.6473 4.31958 34.3559 5.61099 34.3559 7.21411V17.2336C34.3559 18.5028 35.202 19.6383 36.4043 19.9946L37.1168 20.195V23.6907L37.1391 25.5833H37.1613V30.2813L36.3598 30.4372C19.3266 33.9997 6.94688 49.2516 6.94688 66.6856C6.94688 87.1254 23.557 103.736 43.9969 103.736C46.9805 103.736 49.9863 103.379 52.9031 102.645C53.2594 102.556 53.482 102.177 53.393 101.843C53.3484 101.665 53.2371 101.531 53.0812 101.42C52.9254 101.331 52.7473 101.309 52.5691 101.331C49.7859 102.021 46.8914 102.355 43.9746 102.355C24.2918 102.355 8.26055 86.3239 8.26055 66.6411C8.26055 46.9583 24.3141 30.9493 43.9969 30.9493C52.1461 30.9493 60.1172 33.777 66.4629 38.9204C72.6973 43.9747 77.1059 51.0551 78.8426 58.8258L79.0207 59.6051L78.2859 59.9391C77.3063 60.4067 76.4602 60.8743 75.6809 61.3641L74.434 62.1657L74.1445 60.7184C71.3391 46.3348 58.6477 35.8922 43.9746 35.8922C27.0305 35.9145 13.2258 49.7192 13.2258 66.6633C13.2258 83.6297 27.0305 97.4122 43.9746 97.4122C51.3891 97.4122 58.5363 94.7403 64.1027 89.8641L65.216 88.9067L65.7059 90.2872C66.0621 91.2446 66.4406 92.1352 66.8859 93.0258L67.2422 93.7383L66.6188 94.2504C64.4813 96.0317 62.1434 97.5235 59.7164 98.7258C59.3824 98.8817 59.2488 99.2825 59.427 99.6165C59.5828 99.9504 59.9836 100.062 60.3176 99.9059C62.6555 98.7481 64.9488 97.3008 67.1086 95.5864L67.9547 94.9184L68.5559 95.809C69.0012 96.4547 69.491 97.1004 70.0699 97.8129L70.7156 98.5922L69.9586 99.2379C62.5219 105.205 53.5488 108.345 43.9746 108.345C21.0188 108.345 2.33789 89.6637 2.33789 66.6856C2.33789 46.8469 16.4098 29.7024 35.8254 25.8282L36.0703 24.4032C15.7418 28.2106 1.00195 45.9563 1.00195 66.6856C1.00195 90.3985 20.284 109.681 43.9969 109.681C53.816 109.681 63.4348 106.274 71.0719 100.062L71.7398 99.5274L72.3856 100.106C76.8609 104.159 82.65 106.363 88.684 106.363C102.11 106.363 113.043 95.4305 113.043 82.0043C112.998 68.5782 102.066 57.668 88.6395 57.668ZM49.4965 30.0364L48.3832 29.9028C46.9359 29.7247 45.5109 29.6356 43.9969 29.6356C42.5273 29.6356 41.0355 29.7247 39.6105 29.9028L38.4973 30.0364V20.1282H49.4965V30.0364ZM69.2684 30.4817C69.2684 30.0586 69.4242 29.6356 69.7359 29.3461L71.0051 28.077C71.2945 27.7875 71.6953 27.6317 72.1184 27.6317C72.4969 27.6317 72.8754 27.7653 73.1648 28.0325L73.2316 28.077L82.2047 37.05C82.4941 37.3395 82.65 37.7403 82.65 38.1633C82.65 38.5418 82.5164 38.9204 82.2492 39.2098L82.2047 39.2766L80.9355 40.5458C80.6461 40.8352 80.2453 41.0133 79.8223 41.0133H79.7777C79.377 40.9911 78.9984 40.8352 78.709 40.5458L69.7582 31.595C69.4465 31.2833 69.2684 30.9047 69.2684 30.4817ZM71.8734 42.327C70.6711 40.9465 69.3352 39.6329 67.9324 38.4528L67.1086 37.7403L70.5375 34.2668L75.9926 39.7219L72.5859 43.1286L71.8734 42.327ZM64.7707 86.8805L64.882 87.4149L64.5035 87.7934C63.2566 89.018 61.8094 90.1981 60.2062 91.2668L59.2934 91.8903L58.5141 90.443C58.425 90.2872 58.2691 90.1758 58.1133 90.1313C57.9574 90.0868 57.7793 90.109 57.6457 90.1981C57.4676 90.2872 57.3562 90.443 57.3117 90.6211C57.2672 90.777 57.2895 90.9551 57.3785 91.0887L58.2246 92.5137L57.2672 93.0036C53.6602 94.8071 49.8082 95.8536 45.8004 96.0762L44.7316 96.143V94.5176C44.7316 94.1614 44.4199 93.8497 44.0637 93.8497C43.7074 93.8497 43.3957 94.1614 43.3957 94.5176V96.143L42.327 96.0762C38.3191 95.8536 34.4672 94.8294 30.8602 93.0036L29.9027 92.5137L30.7488 91.0887C30.8602 90.8883 30.8379 90.6879 30.8156 90.5989C30.7711 90.4208 30.6598 90.2872 30.5262 90.1981C30.3035 90.0645 30.1254 90.109 30.0141 90.1313C29.8359 90.1758 29.7023 90.2872 29.6133 90.4208L28.834 91.8458L27.9211 91.2446C24.5813 89.0403 21.7535 86.2126 19.527 82.8504L18.9258 81.9376L20.3508 81.1583C20.5066 81.0692 20.618 80.9133 20.6625 80.7575C20.707 80.6016 20.6848 80.4235 20.5957 80.2899C20.5066 80.134 20.3508 80.0227 20.1727 79.9782C20.0836 79.9559 19.8832 79.9336 19.7051 80.045L18.3023 80.8688L17.8125 79.9336C15.9645 76.3711 14.8957 72.4969 14.6508 68.4223L14.584 67.3536H16.2094C16.5656 67.3536 16.8773 67.0418 16.8773 66.6856C16.8773 66.3293 16.5656 66.0176 16.2094 66.0176H14.584L14.6508 64.9489C14.8734 60.9411 15.8977 57.0891 17.7234 53.4821L18.2133 52.5247L19.616 53.3708C19.7273 53.4375 19.8609 53.4598 19.9277 53.4598C20.0613 53.4598 20.3285 53.4153 20.5066 53.1258C20.6402 52.9032 20.618 52.7028 20.5734 52.6137C20.5289 52.4356 20.4176 52.302 20.284 52.2129L18.859 51.4336L19.4602 50.5208C21.6645 47.1809 24.4922 44.3532 27.8543 42.1266L28.7672 41.5254L29.5465 42.9504C29.6801 43.1508 29.9027 43.2844 30.1254 43.2844C30.2367 43.2844 30.348 43.2622 30.4148 43.2176L30.4594 43.1954C30.6152 43.1063 30.7266 42.9504 30.7711 42.7946C30.8156 42.6387 30.7934 42.4606 30.7043 42.327L29.8582 40.902L30.8156 40.4122C34.4227 38.6086 38.2746 37.5622 42.2824 37.3395L43.3512 37.2727V38.8981C43.3512 39.2543 43.6629 39.5661 44.0191 39.5661C44.3754 39.5661 44.6871 39.2543 44.6871 38.8981V37.2727L45.7559 37.3395C49.7637 37.5622 53.6156 38.5864 57.2227 40.4122L58.1801 40.902L57.334 42.3047C57.2227 42.5051 57.2449 42.7055 57.2672 42.7946C57.3117 42.9727 57.423 43.1063 57.5566 43.1954C57.6902 43.2622 57.8016 43.2844 57.8906 43.2844C58.0242 43.2844 58.2914 43.2399 58.4695 42.9504L59.2488 41.5032L60.1617 42.1043C63.5016 44.3086 66.3293 47.1364 68.5559 50.4985L69.157 51.4114L67.732 52.1907C67.5762 52.2797 67.4648 52.4356 67.4203 52.5915C67.3758 52.7473 67.398 52.9254 67.4871 53.059C67.6207 53.2817 67.8434 53.4153 68.066 53.4153C68.1773 53.4153 68.2887 53.393 68.3555 53.3485L68.3777 53.3262L69.7805 52.5024L70.2703 53.4598C71.7176 56.2876 72.675 59.3602 73.1203 62.611L73.1871 63.1454L72.7863 63.5016C67.4203 68.1774 64.3477 74.9016 64.3477 81.9821C64.3031 83.6075 64.459 85.2329 64.7707 86.8805ZM88.6395 105.027C75.9481 105.027 65.6168 94.6957 65.6168 82.0043C65.6168 69.3129 75.9481 58.9817 88.6395 58.9817C101.331 58.9817 111.662 69.3129 111.662 82.0043C111.662 94.6957 101.331 105.027 88.6395 105.027Z" fill="black"/>
<path d="M104.918 98.2837C113.908 89.2929 113.908 74.7159 104.918 65.7251C95.9268 56.7343 81.3498 56.7343 72.359 65.7251C63.3682 74.7159 63.3682 89.2929 72.359 98.2837C81.3498 107.275 95.9268 107.275 104.918 98.2837Z" fill="#F28E00"/>
<path d="M98.325 75.3245C98.1246 75.0573 97.9242 74.7901 97.7238 74.5229C97.6125 74.3671 97.5457 74.1889 97.5902 73.9885L98.2582 71.1831C98.3027 70.9604 98.2359 70.7378 98.0578 70.5819C97.1672 69.8471 96.2098 69.2237 95.1856 68.7116C94.9852 68.6225 94.7402 68.6448 94.5621 68.7784L92.2688 70.5374C92.1129 70.6487 91.9348 70.6932 91.7344 70.6264C91.0887 70.4483 90.4207 70.337 89.7527 70.2702C89.5746 70.2479 89.3965 70.1589 89.2852 69.9807L87.7711 67.5315C87.6598 67.3311 87.4371 67.2198 87.2145 67.2421C86.0789 67.3534 84.9656 67.5761 83.8746 67.9546C83.652 68.0214 83.5184 68.2218 83.4738 68.4444L83.0953 71.3167C83.0731 71.4948 82.9617 71.6729 82.7836 71.762C82.4941 71.9178 82.2047 72.096 81.9375 72.2964C81.6703 72.4968 81.4031 72.6971 81.1359 72.8975C80.9801 73.0089 80.802 73.0757 80.6016 73.0311L77.7961 72.3632C77.5734 72.3186 77.3508 72.3854 77.1949 72.5636C76.4602 73.4542 75.8367 74.4116 75.3469 75.4358C75.2578 75.6362 75.2801 75.8811 75.4137 76.0593L77.1727 78.3526C77.284 78.5085 77.3285 78.6866 77.2617 78.887C77.0836 79.5327 76.9723 80.2007 76.9055 80.8686C76.8832 81.0468 76.7942 81.2249 76.616 81.3362L74.1445 82.8503C73.9441 82.9616 73.8328 83.1843 73.8551 83.4069C73.9664 84.5425 74.1891 85.6557 74.5676 86.7468C74.6344 86.9694 74.8348 87.103 75.0574 87.1475L77.9297 87.5261C78.1078 87.5483 78.2859 87.6596 78.375 87.8378C78.5309 88.1272 78.709 88.4167 78.9094 88.6839C79.1098 88.951 79.3102 89.2182 79.5106 89.4854C79.6219 89.6413 79.6887 89.8194 79.6442 90.0198L78.9762 92.8253C78.9317 93.0479 78.9984 93.2706 79.1766 93.4264C80.0672 94.1612 81.0246 94.7846 82.0488 95.2745C82.2492 95.3636 82.4941 95.3413 82.6723 95.2077L84.9656 93.4487C85.1215 93.3374 85.2996 93.2928 85.5 93.3596C86.1457 93.5378 86.8137 93.6491 87.4816 93.7159C87.6598 93.7382 87.8379 93.8272 87.9492 94.0054L89.4633 96.4768C89.5746 96.6772 89.7973 96.7886 90.0199 96.7663C91.1555 96.655 92.2688 96.4323 93.3598 96.0538C93.5824 95.987 93.7383 95.7866 93.7606 95.5639L94.1391 92.6917C94.1613 92.5135 94.2727 92.3354 94.4508 92.2464C94.7402 92.0905 95.0297 91.9124 95.2969 91.712C95.5641 91.5116 95.8313 91.3112 96.0984 91.1108C96.2543 90.9995 96.4324 90.9327 96.6328 90.9772L99.4383 91.6452C99.6609 91.6897 99.8836 91.6229 100.039 91.4448C100.774 90.5542 101.398 89.5968 101.888 88.5725C101.977 88.3721 101.954 88.1272 101.821 87.9491L100.062 85.6557C99.9504 85.4999 99.9059 85.3218 99.9727 85.1214C100.151 84.4757 100.262 83.8077 100.329 83.1397C100.351 82.9616 100.44 82.7835 100.618 82.6721L103.068 81.1581C103.268 81.0468 103.379 80.8241 103.357 80.6014C103.246 79.4659 103.023 78.3526 102.645 77.2616C102.578 77.0389 102.377 76.9054 102.155 76.8608L99.2824 76.4823C99.1043 76.46 98.9262 76.3487 98.8371 76.1706C98.6813 75.8811 98.5031 75.6139 98.325 75.3245ZM91.5563 87.0585C89.107 88.4835 85.9008 87.9046 84.1195 85.7003C81.8484 82.8948 82.6055 78.7534 85.7227 76.9499C88.1719 75.5249 91.3781 76.1261 93.1594 78.3081C95.4527 81.1136 94.6734 85.255 91.5563 87.0585Z" fill="white"/>
<path d="M89.9977 97.4121C89.5746 97.4121 89.1516 97.1894 88.9289 96.8109L87.4371 94.384C86.7469 94.3172 86.0789 94.1836 85.411 94.0054L83.1399 95.7422C82.7613 96.0316 82.2492 96.0761 81.8039 95.8758C80.7352 95.3414 79.7109 94.6957 78.7981 93.9386C78.4195 93.6269 78.2637 93.1371 78.375 92.6695L79.043 89.8863C78.8203 89.6191 78.6199 89.3519 78.4195 89.0625C78.2192 88.773 78.041 88.4836 77.8629 88.1941L75.0352 87.8156C74.5676 87.7488 74.1445 87.4148 74.0109 86.9695C73.6324 85.834 73.3875 84.6539 73.2539 83.4738C73.2094 83.0062 73.4543 82.5386 73.8551 82.2715L76.282 80.7797C76.3488 80.0894 76.4824 79.4215 76.6606 78.7535L74.9238 76.4824C74.6344 76.1039 74.5899 75.5918 74.7902 75.1465C75.3246 74.0777 75.9703 73.0535 76.7274 72.1406C77.0391 71.7843 77.5289 71.6062 77.9965 71.7176L80.7797 72.3855C81.0469 72.1629 81.3141 71.9625 81.6035 71.7621C81.893 71.5617 82.1824 71.3836 82.4719 71.2054L82.8504 68.3777C82.9172 67.9101 83.2512 67.4871 83.6965 67.3535C84.832 66.975 86.0121 66.7301 87.1922 66.6187C87.6598 66.5742 88.1274 66.8191 88.3723 67.2199L89.8641 69.6468C90.5543 69.7136 91.2223 69.8472 91.8902 70.0254L94.1613 68.2886C94.5399 67.9992 95.0742 67.9547 95.4973 68.1551C96.566 68.6894 97.5902 69.3351 98.5031 70.0922C98.8594 70.4039 99.0375 70.8937 98.9262 71.3613L98.2582 74.1445C98.4586 74.4117 98.6813 74.6789 98.8817 74.9683C99.082 75.2578 99.2602 75.5472 99.4383 75.8367L102.266 76.2152C102.734 76.282 103.157 76.616 103.29 77.0613C103.669 78.1968 103.914 79.3769 104.047 80.557C104.092 81.0246 103.847 81.4922 103.446 81.7594L101.019 83.2511C100.952 83.9414 100.819 84.6093 100.641 85.2773L102.377 87.5484C102.667 87.9269 102.711 88.439 102.511 88.8843C101.977 89.9531 101.331 90.9773 100.574 91.8902C100.262 92.2465 99.7723 92.4246 99.3047 92.3133L96.5215 91.6453C96.2543 91.8679 95.9871 92.0683 95.6977 92.2687C95.4082 92.4691 95.1188 92.6472 94.8293 92.8254L94.4508 95.6531C94.384 96.1207 94.05 96.5437 93.6047 96.6996C92.4692 97.0781 91.2891 97.323 90.109 97.4566C90.0645 97.3898 90.0199 97.4121 89.9977 97.4121ZM85.3664 92.6472C85.4777 92.6472 85.5891 92.6695 85.7004 92.6918C86.3016 92.8476 86.925 92.9812 87.5707 93.0258C87.9715 93.0703 88.3277 93.2929 88.5281 93.6269L90.0199 96.0539C91.0664 95.9425 92.1129 95.7199 93.1149 95.3859L93.4934 92.5582C93.5379 92.1574 93.7828 91.8234 94.1391 91.623C94.4063 91.4672 94.6734 91.3113 94.9406 91.1109C95.2078 90.9328 95.4527 90.7324 95.6977 90.5543C96.0094 90.3094 96.4102 90.198 96.8109 90.2871L99.5942 90.9551C100.262 90.1312 100.841 89.2406 101.309 88.2832L99.5719 86.0343C99.327 85.7226 99.2602 85.2996 99.3492 84.9211C99.5051 84.3199 99.6387 83.6965 99.6832 83.0508C99.7277 82.65 99.9504 82.2937 100.284 82.0933L102.711 80.6015C102.6 79.5551 102.377 78.5086 102.043 77.5066L99.2156 77.1281C98.8149 77.0836 98.4809 76.8386 98.2805 76.4824C98.1246 76.2152 97.9688 75.948 97.7684 75.6808C97.5902 75.4136 97.3899 75.1687 97.2117 74.9238C96.9668 74.6121 96.8555 74.2113 96.9445 73.8105L97.6125 71.0496C96.7887 70.3816 95.8981 69.8027 94.9406 69.3351L92.6918 71.0719C92.3801 71.3168 91.957 71.3836 91.5785 71.2945C90.9774 71.1386 90.3539 71.0051 89.7082 70.9605C89.3074 70.916 88.9512 70.6933 88.7508 70.3593L87.259 67.9324C86.2125 68.0437 85.166 68.2664 84.1641 68.6004L83.7856 71.4281C83.741 71.8289 83.4961 72.1629 83.1399 72.3633C82.8727 72.5191 82.6055 72.675 82.3383 72.8754C82.0711 73.0535 81.8262 73.2539 81.5813 73.432C81.2695 73.6769 80.8688 73.7883 80.468 73.6992L77.707 73.0312C77.0391 73.8551 76.4602 74.7457 75.9926 75.7031L77.7293 77.9742C77.9742 78.2859 78.041 78.6867 77.952 79.0875C77.7961 79.6886 77.6625 80.3121 77.618 80.9578C77.5735 81.3586 77.3508 81.7148 77.0168 81.9152L74.5899 83.407C74.7012 84.4535 74.9238 85.5 75.2578 86.5019L78.0856 86.8804C78.4863 86.925 78.8203 87.1699 79.0207 87.5261C79.1766 87.7933 79.3324 88.0605 79.5328 88.3277C79.711 88.5949 79.9113 88.8398 80.0895 89.0847C80.3344 89.3965 80.4457 89.7972 80.3567 90.198L79.6887 92.959C80.5125 93.6269 81.4031 94.2058 82.3606 94.6734L84.6317 92.9367C84.832 92.7363 85.0992 92.6472 85.3664 92.6472ZM88.6617 88.5058C86.7469 88.5058 84.8543 87.682 83.5852 86.1234C82.3828 84.6316 81.893 82.6945 82.227 80.8242C82.5832 78.9539 83.7188 77.3285 85.3887 76.3711C88.1274 74.7902 91.6899 75.4359 93.6715 77.8851C94.8738 79.3769 95.3859 81.2918 95.0297 83.1843C94.6957 85.0547 93.5379 86.6801 91.868 87.6597C90.8883 88.2164 89.775 88.5058 88.6617 88.5058ZM88.6172 76.8386C87.7266 76.8386 86.8582 77.0613 86.0567 77.5289C84.743 78.2859 83.8301 79.5773 83.5406 81.0691C83.2735 82.5609 83.652 84.0972 84.6317 85.2773C86.2125 87.2367 89.0402 87.7488 91.2223 86.4797C92.536 85.7226 93.4488 84.409 93.7383 82.9172C94.0055 81.4254 93.627 79.889 92.6473 78.709C91.6453 77.5066 90.1313 76.8386 88.6172 76.8386Z" fill="black"/>
</g>
<defs>
<clipPath id="clip0_167_923">
<rect width="114" height="114" fill="white"/>
</clipPath>
</defs>
</svg>
