<svg width="112" height="108" viewBox="0 0 112 108" fill="none" xmlns="http://www.w3.org/2000/svg">
<path d="M35.1929 25.5294C34.3991 25.0663 33.495 24.8237 32.613 24.8237C32.1499 24.8237 31.6869 24.8899 31.2459 25.0001C29.8787 25.3529 28.7541 26.2129 28.0706 27.4257C27.3649 28.6606 27.1885 30.0718 27.5413 31.3948C27.8941 32.762 28.7541 33.8866 29.9669 34.5701C30.7607 35.0332 31.6648 35.2758 32.5909 35.2758C33.054 35.2758 33.5171 35.2096 33.914 35.0994H33.936C35.2811 34.7465 36.4057 33.8866 37.0893 32.6738C38.5226 30.16 37.6626 26.9627 35.1929 25.5294ZM35.9427 31.9902C35.4134 32.8943 34.5755 33.5338 33.5612 33.7984C33.2304 33.8866 32.8997 33.9307 32.5689 33.9307C31.8853 33.9307 31.2238 33.7543 30.6284 33.4235C29.7244 32.8943 29.0849 32.0564 28.8203 31.042C28.5557 30.0497 28.688 28.9913 29.1951 28.0872C29.7023 27.2052 30.5623 26.5437 31.5766 26.2791C31.8192 26.2129 32.194 26.1247 32.5689 26.1247C33.2525 26.1247 33.8919 26.3011 34.5094 26.6539C35.4134 27.1611 36.0529 28.0211 36.3175 29.0354C36.6042 30.0497 36.4498 31.0861 35.9427 31.9902Z" fill="black"/>
<path d="M34.2227 89.6969C34.2227 90.0497 33.9139 90.3584 33.5611 90.3584H25.8654C25.5126 90.3584 25.2039 90.0718 25.2039 89.6969C25.2039 89.3441 25.5126 89.0354 25.8654 89.0354H33.5611C33.9139 89.0354 34.2227 89.3441 34.2227 89.6969Z" fill="black"/>
<path d="M102.139 68.1092L101.742 67.8225V49.344C101.742 47.4918 100.639 45.7939 98.9415 45.0442L97.9272 44.6031L99.1841 42.4422C99.6913 41.5822 99.8015 40.5899 99.5369 39.5976C99.2723 38.6495 98.6549 37.8336 97.7949 37.3264L93.7817 35.0111V19.2669C93.7817 16.6869 91.6869 14.5701 89.0849 14.5701H64.5865C63.484 14.5701 62.4256 14.967 61.5876 15.6506L61.0584 16.0916L34.0022 0.501728C33.1422 -0.00543833 32.1499 -0.137743 31.1577 0.148917C30.1874 0.413525 29.3715 1.03095 28.9085 1.86887L15.3473 25.3308H4.6968C2.11687 25.3308 0 27.4477 0 30.0276V79.0684C0 79.4212 0.30871 79.7299 0.661521 79.7299C1.01433 79.7299 1.32304 79.4212 1.32304 79.0684V30.0276C1.32304 28.1754 2.84454 26.6539 4.6968 26.6539H14.5755L6.3065 40.9427C5.79934 41.8027 5.66703 42.795 5.95369 43.7873C6.2183 44.7355 6.83572 45.5513 7.6957 46.0585L15.7001 50.6891V95.3859C15.7001 99.333 12.5028 102.53 8.55568 102.53H8.42337C6.54906 102.53 4.785 101.803 3.43991 100.458C2.07277 99.1125 1.32304 97.3043 1.32304 95.3859V86.4333C1.32304 86.0805 1.01433 85.7718 0.661521 85.7718C0.286659 85.7718 0 86.0585 0 86.4333V95.3859C0 100.061 3.79272 103.853 8.46747 103.853H78.8974L79.118 103.986C82.3374 105.772 85.9316 106.72 89.5479 106.72C101.323 106.72 110.915 97.1279 110.915 85.3529C110.915 78.5833 107.63 72.1445 102.139 68.1092ZM63.9691 16.0254C64.2117 15.8931 64.4542 15.8931 64.5865 15.8931H89.1069C90.9592 15.8931 92.4807 17.4146 92.4807 19.2669V34.2614L86.3065 30.6891V25.5513C86.3065 23.8755 84.9393 22.5304 83.2855 22.5304H72.1499L62.3153 16.8413L63.9691 16.0254ZM84.9834 25.5513V29.9394L74.3991 23.8534H83.2855C84.2337 23.8534 84.9834 24.6031 84.9834 25.5513ZM13.5832 102.552L14.9724 100.921C16.2955 99.3771 17.0231 97.4146 17.0231 95.408V49.344C17.0231 47.4918 18.5446 45.9703 20.3969 45.9703H69.9008C70.2536 45.9703 70.5623 45.6616 70.5623 45.3088C70.5623 44.956 70.2536 44.6472 69.9008 44.6472H66.1521L66.3065 43.5227C67.0562 38.01 64.4101 32.6517 59.581 29.8512C56.4278 28.021 52.7233 27.5579 49.1951 28.5061C45.667 29.4543 42.7122 31.7255 40.882 34.8788C39.3605 37.5249 38.7651 40.5238 39.1841 43.5447L39.3385 44.6693H29.2392L29.0849 43.8755C29.0408 43.6991 28.9305 43.5668 28.7762 43.4565L21.2789 39.1346C21.0805 39.0023 20.882 39.0464 20.7718 39.0684C20.5954 39.1125 20.4631 39.2228 20.3749 39.3551C20.2426 39.5756 20.2867 39.752 20.3087 39.8622C20.3528 40.0387 20.4631 40.171 20.5954 40.2592L28.2029 44.6693H20.1764L14.6637 41.4499L33.5171 8.81485L38.3903 11.6373L34.6417 18.1423C34.2007 18.892 34.4653 19.8622 35.215 20.3033L39.6913 22.8832C39.9559 23.0155 40.2205 23.1037 40.4851 23.1037C40.6395 23.1037 40.7497 23.0817 40.86 23.0596H40.882C41.2789 22.9493 41.6097 22.7068 41.8082 22.354L45.5788 15.827L54.0022 20.6781C54.2006 20.7884 54.3991 20.7663 54.5094 20.7443C54.6858 20.7002 54.8181 20.5899 54.9063 20.4576C55.0386 20.2371 54.9945 20.0607 54.9724 19.9505C54.9283 19.774 54.8181 19.6417 54.6858 19.5535L33.6053 7.38155C33.4509 7.29335 33.2745 7.2713 33.1422 7.3154L33.0981 7.33745C32.9217 7.38155 32.7674 7.51385 32.6792 7.64616L13.2304 41.3837C13.1422 41.5381 13.1202 41.7366 13.1643 41.8909C13.2084 42.0673 13.3407 42.2217 13.473 42.3099L18.1698 45.0442L17.2216 45.9482C16.6483 46.5216 16.2073 47.2051 15.9427 47.9549L15.5678 49.1015L8.35722 44.9339C7.80595 44.6031 7.40904 44.096 7.23263 43.5006L7.21058 43.4565C7.05623 42.8391 7.14443 42.2217 7.43109 41.6704L7.45314 41.6483L30.0551 2.53039C30.4079 1.93502 30.9371 1.53811 31.5546 1.40581C32.172 1.25145 32.7894 1.33965 33.3186 1.62631L33.3407 1.64836L97.1554 38.4951C97.7067 38.8259 98.1036 39.333 98.28 39.9284L98.3021 39.9725C98.4564 40.5899 98.3682 41.2073 98.0816 41.7366L98.0595 41.7586L96.3837 44.6252H90.8048L92.3263 41.9791C92.4366 41.7807 92.4145 41.5822 92.3925 41.4719C92.3484 41.2955 92.2381 41.1632 92.1058 41.075L61.0584 23.1478C60.86 23.0375 60.6615 23.0596 60.5513 23.0817C60.3748 23.1258 60.2425 23.236 60.1543 23.3683C60.022 23.5888 60.0661 23.7652 60.0882 23.8755C60.1323 24.0519 60.2425 24.1842 60.3748 24.2724L90.8489 41.8909L89.2613 44.6031H85.226L85.1819 43.655C85.1819 43.4345 85.0496 43.236 84.8511 43.1037L77.3539 38.7818C77.1554 38.6715 76.957 38.6936 76.8467 38.7156C76.6703 38.7597 76.538 38.87 76.4498 39.0023C76.3175 39.2228 76.3616 39.3992 76.3837 39.5094C76.4278 39.6858 76.538 39.8181 76.6703 39.9063L84.785 44.5811H77.2216C76.8688 44.5811 76.5601 44.8898 76.5601 45.2426C76.5601 45.5954 76.8688 45.9041 77.2216 45.9041H97.0011C98.8533 45.9041 100.375 47.4256 100.375 49.2779V66.8523L98.9415 66.1467C96.0088 64.6913 92.8335 63.9637 89.5038 63.9637C77.7288 63.9637 68.1367 73.5557 68.1367 85.3308C68.1367 91.2183 70.4961 96.709 74.774 100.788L76.5601 102.508L13.5832 102.552ZM39.5149 12.3209L44.4322 15.1213L40.5513 21.8468L35.6339 19.0243L39.5149 12.3209ZM89.5479 105.397C78.5005 105.397 69.5038 96.4003 69.5038 85.3529C69.5038 74.3055 78.5005 65.3088 89.5479 65.3088C100.595 65.3088 109.592 74.3055 109.592 85.3529C109.592 96.4003 100.595 105.397 89.5479 105.397Z" fill="black"/>
<path fill-rule="evenodd" clip-rule="evenodd" d="M64.5034 45C64.8267 43.8894 65 42.7149 65 41.5C65 34.5964 59.4036 29 52.5 29C45.5964 29 40 34.5964 40 41.5C40 42.7149 40.1733 43.8894 40.4966 45H64.5034Z" fill="white"/>
<path d="M54.3049 35.647L52.2417 39.0423C52.2043 39.1039 52.2129 39.1619 52.2677 39.2162C52.5768 39.4778 52.9449 39.7384 53.3722 39.9981C54.0773 40.4265 54.7155 40.5877 55.287 40.4817C55.8657 40.38 56.3421 40.0212 56.7164 39.4052C57.0906 38.7893 57.1885 38.211 57.01 37.6703C56.8433 37.1263 56.4003 36.6357 55.681 36.1986C55.2964 35.9649 54.8932 35.762 54.4712 35.59C54.3977 35.5664 54.3423 35.5854 54.3049 35.647ZM49.6504 43.0179C49.5159 43.0627 49.3881 43.0483 49.267 42.9748C49.146 42.9012 49.0708 42.7923 49.0415 42.6479C49.0193 42.508 49.0456 42.3764 49.1204 42.2532L53.5275 35.0007C53.6397 34.8159 53.795 34.6888 53.9931 34.6195C54.1959 34.5425 54.3898 34.5443 54.5748 34.6251C55.1606 34.8967 55.7027 35.184 56.2012 35.4869C57.1698 36.0754 57.7676 36.7444 57.9948 37.4939C58.2338 38.24 58.103 39.025 57.6024 39.8488C57.0597 40.7418 56.3952 41.2657 55.6088 41.4204C54.8225 41.5751 53.9486 41.3604 52.9872 40.7761C52.6026 40.5425 52.2084 40.2766 51.8045 39.9784C51.7404 39.9395 51.692 39.9469 51.6592 40.0008L49.975 42.7725C49.9002 42.8957 49.792 42.9775 49.6504 43.0179Z" fill="black"/>
<path d="M89.5479 107.712C101.897 107.712 111.907 97.7016 111.907 85.3528C111.907 73.0041 101.897 62.9934 89.5479 62.9934C77.1991 62.9934 67.1885 73.0041 67.1885 85.3528C67.1885 97.7016 77.1991 107.712 89.5479 107.712Z" fill="#F28E00"/>
<path d="M88.3 80.86V86.74C88.3 86.8466 88.36 86.9133 88.48 86.94C89.12 87.0333 89.84 87.08 90.64 87.08C91.96 87.08 92.9667 86.7933 93.66 86.22C94.3667 85.6466 94.72 84.8266 94.72 83.76C94.72 82.6933 94.3733 81.8866 93.68 81.34C93 80.78 91.9867 80.5 90.64 80.5C89.92 80.5 89.2 80.5533 88.48 80.66C88.36 80.6866 88.3 80.7533 88.3 80.86ZM88.06 93.76C87.9133 93.92 87.7267 94 87.5 94C87.2733 94 87.08 93.92 86.92 93.76C86.7733 93.6 86.7 93.4133 86.7 93.2V80.64C86.7 80.32 86.8067 80.04 87.02 79.8C87.2333 79.5466 87.5 79.4 87.82 79.36C88.8467 79.2533 89.8267 79.2 90.76 79.2C92.5733 79.2 93.9467 79.5866 94.88 80.36C95.8267 81.12 96.3 82.2133 96.3 83.64C96.3 85.1866 95.8267 86.36 94.88 87.16C93.9333 87.96 92.56 88.36 90.76 88.36C90.04 88.36 89.28 88.3266 88.48 88.26C88.36 88.26 88.3 88.3066 88.3 88.4V93.2C88.3 93.4133 88.22 93.6 88.06 93.76Z" fill="black"/>
<path d="M89.5479 70.248C81.2128 70.248 74.4211 77.0397 74.4211 85.3748C74.4211 93.71 81.2128 100.502 89.5479 100.502C97.8831 100.502 104.675 93.71 104.675 85.3748C104.675 77.0397 97.8831 70.248 89.5479 70.248ZM89.5479 99.1565C81.9404 99.1565 75.7442 92.9603 75.7442 85.3528C75.7442 77.7453 81.9404 71.549 89.5479 71.549C97.1554 71.549 103.352 77.7453 103.352 85.3528C103.352 92.9603 97.1554 99.1565 89.5479 99.1565Z" fill="black"/>
</svg>
