<svg width="103" height="109" viewBox="0 0 103 109" fill="none" xmlns="http://www.w3.org/2000/svg">
<path d="M102.304 56.0169C102.651 56.0169 102.954 55.7135 102.954 55.3668V47.2189C102.954 46.5471 102.434 45.962 101.762 45.9187L100.852 45.8537V31.8982C100.852 31.5515 100.809 31.2264 100.744 30.9447C100.289 29.2111 98.7501 28.0193 96.9732 28.0193H78.727V16.8592C78.727 16.5125 78.4237 16.2091 78.0769 16.2091C77.7302 16.2091 77.4268 16.5125 77.4268 16.8592V28.0193H66.2235V21.995C66.2235 21.6483 65.9201 21.3449 65.5734 21.3449C65.2266 21.3449 64.9233 21.6483 64.9233 21.995V35.2787H38.0525V6.63101L43.3833 1.3002H64.9233V14.4105C64.9233 14.7573 65.2266 15.0606 65.5734 15.0606C65.9201 15.0606 66.2235 14.7573 66.2235 14.4105V1.3002C66.2235 0.585089 65.6384 0 64.9233 0H43.3833C43.0366 0 42.7332 0.13002 42.4732 0.39006L37.1423 5.72087C36.8823 5.98091 36.7523 6.28429 36.7523 6.63101V28.0193H26.069V16.8592C26.069 16.5125 25.7656 16.2091 25.4189 16.2091C25.0722 16.2091 24.7688 16.5125 24.7688 16.8592V28.0193H6.00258C4.22565 28.0193 2.68708 29.2111 2.25368 30.9231C2.167 31.2264 2.12366 31.5298 2.12366 31.8982V48.4324L0.39006 50.166C0.13002 50.426 0 50.7294 0 51.0761V72.1394C0 72.8111 0.52008 73.3962 1.19185 73.4396L2.10199 73.5046V87.5901C2.10199 89.1503 3.35885 90.4072 4.91909 90.4072H38.1608V100.635H28.5177C26.3724 100.635 24.6171 102.391 24.6171 104.536V106.183C24.6171 107.743 25.874 109 27.4342 109H75.4765C77.0368 109 78.2936 107.743 78.2936 106.183V104.536C78.2936 102.391 76.5384 100.635 74.3931 100.635H64.7499V90.4072H97.9917C99.5519 90.4072 100.809 89.1503 100.809 87.5901V73.5046L101.719 73.4396C102.391 73.3962 102.911 72.8111 102.911 72.1394V62.9513C102.911 62.6046 102.607 62.3012 102.261 62.3012C101.914 62.3012 101.611 62.6046 101.611 62.9513V72.1394H81.9775V51.0761L85.8348 47.2189H101.654V55.3668C101.654 55.7135 101.957 56.0169 102.304 56.0169ZM1.32187 72.1394V51.0761L5.17913 47.2189H20.9549V72.1394H1.32187ZM74.4147 101.936C75.8449 101.936 77.0151 103.106 77.0151 104.536V106.183C77.0151 107.028 76.3433 107.7 75.4982 107.7H27.4775C26.6324 107.7 25.9606 107.028 25.9606 106.183V104.536C25.9606 103.106 27.1308 101.936 28.561 101.936H51.9213C52.268 101.936 52.5714 101.632 52.5714 101.285C52.5714 100.939 52.268 100.635 51.9213 100.635H39.4827V90.4072H63.4714V100.635H59.5058C59.159 100.635 58.8557 100.939 58.8557 101.285C58.8557 101.632 59.159 101.936 59.5058 101.936H74.4147ZM98.035 89.107H4.94076C4.09563 89.107 3.42386 88.4352 3.42386 87.5901V81.8475H99.5302L99.5519 87.5901C99.5519 88.4352 98.8801 89.107 98.035 89.107ZM99.5519 45.9187H85.8998C85.5531 45.9187 85.2497 46.0487 84.9897 46.3087L81.1107 50.1877C80.8507 50.4477 80.7207 50.7511 80.7207 51.0978V72.161C80.7207 72.8761 81.3058 73.4612 82.0209 73.4612H99.5519V80.569H3.42386V73.4612H20.9549C21.67 73.4612 22.2551 72.8761 22.2551 72.161V47.2406C22.2551 46.5254 21.67 45.9404 20.9549 45.9404H5.2008C5.04911 45.9404 4.91909 45.962 4.83241 46.0054L3.44553 46.6338V31.9415C3.44553 30.5113 4.59404 29.3628 6.02425 29.3628H24.7905V39.8728L22.06 37.1423C21.8217 36.904 21.3883 36.904 21.1499 37.1423C20.9115 37.4024 20.9115 37.8141 21.1499 38.0525L24.9855 41.8881C25.1155 42.0181 25.2672 42.0831 25.4406 42.0831C25.6139 42.0831 25.7656 42.0181 25.8956 41.8881L29.7312 38.0525C29.8396 37.9225 29.9262 37.7708 29.9262 37.5974C29.9262 37.4241 29.8612 37.2507 29.7312 37.1423C29.4928 36.904 29.0594 36.904 28.8211 37.1423L26.0907 39.8728V29.3628H36.774V35.3221C36.774 36.0372 37.3591 36.6223 38.0742 36.6223H50.8594V49.8193H52.138V36.6439H64.9233C65.6384 36.6439 66.2235 36.0588 66.2235 35.3437V29.3845H77.4268V39.8944L74.6964 37.164C74.4581 36.9256 74.0247 36.9256 73.7863 37.164C73.6779 37.294 73.5913 37.4457 73.5913 37.6191C73.5913 37.7924 73.6563 37.9658 73.7863 38.0742L77.6219 41.9097C77.7519 42.0398 77.9036 42.1048 78.0769 42.1048C78.2503 42.1048 78.402 42.0398 78.532 41.9097L82.3676 38.0742C82.606 37.8358 82.606 37.4024 82.3676 37.164C82.1076 36.9256 81.6958 36.9256 81.4575 37.164L78.727 39.8944V29.3845H96.9732C98.4034 29.3845 99.5519 30.533 99.5519 31.9632V45.9187Z" fill="black"/>
<path d="M70.3408 52.3331V73.6997C70.3408 74.4148 69.7557 74.9999 69.0406 74.9999H33.9352C33.2201 74.9999 32.635 74.4148 32.635 73.6997V47.1106C32.635 46.2872 33.3284 45.5938 34.1519 45.5938H45.377C45.9837 45.5938 46.5471 45.9621 46.7855 46.5256L48.6925 51.0329H50.8811H52.1597V51.0546H69.0622C69.7557 51.0329 70.3408 51.618 70.3408 52.3331Z" fill="#F28E00"/>
<path d="M57.6638 3.14209C57.4038 3.14209 57.1654 3.18543 56.9271 3.25044H58.4223C58.1623 3.18543 57.9239 3.14209 57.6638 3.14209Z" fill="white"/>
<path d="M96.8648 52.6147C96.8648 52.9614 96.5614 53.2648 96.2147 53.2648H87.4384C87.0916 53.2648 86.7883 52.9614 86.7883 52.6147C86.7883 52.268 87.0916 51.9646 87.4384 51.9646H96.2147C96.5614 51.9646 96.8648 52.268 96.8648 52.6147Z" fill="black"/>
<path d="M96.8648 57.2954C96.8648 57.6421 96.5614 57.9455 96.2147 57.9455H87.4384C87.0916 57.9455 86.7883 57.6421 86.7883 57.2954C86.7883 56.9486 87.0916 56.6453 87.4384 56.6453H96.2147C96.5614 56.6453 96.8648 56.9486 96.8648 57.2954Z" fill="black"/>
<path d="M96.8648 62.0195C96.8648 62.3879 96.5831 62.6696 96.2147 62.6696H87.4384C87.0916 62.6696 86.7883 62.3662 86.7883 62.0195C86.7883 61.6728 87.0916 61.3694 87.4384 61.3694H96.2147C96.5614 61.3694 96.8648 61.6728 96.8648 62.0195Z" fill="black"/>
<path d="M92.0107 66.7219C92.0107 67.0686 91.7074 67.372 91.3606 67.372H87.4384C87.0916 67.372 86.7883 67.0686 86.7883 66.7219C86.7883 66.3752 87.0916 66.0718 87.4384 66.0718H91.3606C91.7074 66.0718 92.0107 66.3752 92.0107 66.7219Z" fill="black"/>
<path d="M16.1875 52.6147C16.1875 52.9614 15.8841 53.2648 15.5374 53.2648H6.76106C6.41434 53.2648 6.11096 52.9614 6.11096 52.6147C6.11096 52.268 6.41434 51.9646 6.76106 51.9646H15.5374C15.8841 51.9646 16.1875 52.268 16.1875 52.6147Z" fill="black"/>
<path d="M16.1875 57.2954C16.1875 57.6421 15.8841 57.9455 15.5374 57.9455H6.76106C6.41434 57.9455 6.11096 57.6421 6.11096 57.2954C6.11096 56.9486 6.41434 56.6453 6.76106 56.6453H15.5374C15.8841 56.6453 16.1875 56.9486 16.1875 57.2954Z" fill="black"/>
<path d="M16.1875 62.0195C16.1875 62.3662 15.8841 62.6696 15.5374 62.6696H6.76106C6.41434 62.6696 6.11096 62.3662 6.11096 62.0195C6.11096 61.6728 6.41434 61.3694 6.76106 61.3694H15.5374C15.8841 61.3694 16.1875 61.6728 16.1875 62.0195Z" fill="black"/>
<path d="M11.3334 66.7219C11.3334 67.0686 11.03 67.372 10.6833 67.372H6.76106C6.41434 67.372 6.11096 67.0686 6.11096 66.7219C6.11096 66.3752 6.41434 66.0718 6.76106 66.0718H10.6833C11.03 66.0718 11.3334 66.3752 11.3334 66.7219Z" fill="black"/>
<path d="M60.3725 15.039C60.3725 15.3858 60.0692 15.6891 59.7224 15.6891H43.2532C42.9065 15.6891 42.6031 15.3858 42.6031 15.039C42.6031 14.6923 42.9065 14.389 43.2532 14.389H44.6618V10.2066C44.6618 9.85992 44.9652 9.55654 45.3119 9.55654C45.6586 9.55654 45.962 9.85992 45.962 10.2066V14.4106H48.7791V6.86947C48.7791 6.50108 49.0608 6.21937 49.4292 6.21937C49.7759 6.21937 50.0793 6.52275 50.0793 6.86947V14.4106H52.8964V8.53806C52.8964 8.19134 53.1998 7.88796 53.5465 7.88796C53.8932 7.88796 54.1966 8.19134 54.1966 8.53806V14.4106H57.0137V5.74263C57.0137 5.39591 57.3171 5.09253 57.6638 5.09253C58.0105 5.09253 58.3139 5.39591 58.3139 5.74263V14.4106H59.7224C60.0908 14.4106 60.3725 14.6923 60.3725 15.039Z" fill="black"/>
<path d="M57.6638 3.14209C57.4037 3.14209 57.1654 3.18543 56.927 3.25044H58.4222C58.1622 3.18543 57.9238 3.14209 57.6638 3.14209Z" fill="white"/>
<path d="M44.7918 20.4782C44.7918 20.8249 44.4884 21.1283 44.1417 21.1283H43.2532C42.9065 21.1283 42.6031 20.8249 42.6031 20.4782C42.6031 20.1315 42.9065 19.8281 43.2532 19.8281H44.1417C44.5101 19.8281 44.7918 20.1098 44.7918 20.4782Z" fill="black"/>
<path d="M44.7918 25.1372C44.7918 25.4839 44.4884 25.7873 44.1417 25.7873H43.2532C42.9065 25.7873 42.6031 25.4839 42.6031 25.1372C42.6031 24.7904 42.9065 24.4871 43.2532 24.4871H44.1417C44.5101 24.4871 44.7918 24.7688 44.7918 25.1372Z" fill="black"/>
<path d="M44.7918 29.7961C44.7918 30.1428 44.4884 30.4462 44.1417 30.4462H43.2532C42.9065 30.4462 42.6031 30.1428 42.6031 29.7961C42.6031 29.4494 42.9065 29.146 43.2532 29.146H44.1417C44.5101 29.146 44.7918 29.4277 44.7918 29.7961Z" fill="black"/>
<path d="M60.3726 20.4782C60.3726 20.8249 60.0692 21.1283 59.7225 21.1283H48.0857C47.739 21.1283 47.4356 20.8249 47.4356 20.4782C47.4356 20.1315 47.739 19.8281 48.0857 19.8281H59.7225C60.0692 19.8281 60.3726 20.1315 60.3726 20.4782Z" fill="black"/>
<path d="M60.3726 25.1372C60.3726 25.4839 60.0692 25.7873 59.7225 25.7873H48.0857C47.739 25.7873 47.4356 25.4839 47.4356 25.1372C47.4356 24.7904 47.739 24.4871 48.0857 24.4871H59.7225C60.0692 24.4871 60.3726 24.7904 60.3726 25.1372Z" fill="black"/>
<path d="M60.3726 29.7961C60.3726 30.1428 60.0692 30.4462 59.7225 30.4462H48.0857C47.739 30.4462 47.4356 30.1428 47.4356 29.7961C47.4356 29.4494 47.739 29.146 48.0857 29.146H59.7225C60.0692 29.146 60.3726 29.4494 60.3726 29.7961Z" fill="black"/>
</svg>
