<svg width="247" height="52" viewBox="0 0 247 52" fill="none" xmlns="http://www.w3.org/2000/svg">
<path d="M247 50.483H231.537L211.31 26.8295V50.483H200.464V1.05825H211.31V22.8777L228.729 1.05825H243.505L223.284 24.2111L247 50.483ZM193.05 15.8494V50.483H182.203V15.8494H193.05ZM155.83 1.06067V40.1745H175.352V50.4782H144.981V1.05825L155.83 1.06067ZM119.933 40.5261C122.078 40.5261 123.781 40.0674 125.041 39.1502C126.3 38.233 126.93 36.9028 126.928 35.1597C126.928 31.5837 124.573 29.7953 119.862 29.7945H111.395V40.5261H119.933ZM119.581 11.0128H111.395V20.6873H119.512C121.194 20.6873 122.535 20.2521 123.535 19.3818C124.536 18.5114 125.037 17.2992 125.041 15.7452C125.041 14.2906 124.539 13.1378 123.535 12.2868C122.532 11.4358 121.214 11.0112 119.581 11.0128ZM128.188 24.4281C134.859 25.5595 138.194 29.6074 138.194 36.5719C138.194 41.3277 136.632 44.8346 133.509 47.0925C130.385 49.3504 126.397 50.4818 121.544 50.4867H100.55V1.05825H120.842C125.413 1.05825 129.075 2.08214 131.827 4.12994C134.579 6.17774 135.955 9.24863 135.957 13.3426C135.957 18.9446 133.368 22.5929 128.189 24.2875L128.188 24.4281ZM78.2293 15.2494C75.6168 12.6141 72.3044 11.2964 68.292 11.2964C64.2797 11.2964 60.9676 12.6141 58.356 15.2494C55.7436 17.8847 54.4373 21.3916 54.4373 25.77C54.4373 30.1485 55.7436 33.6553 58.356 36.2907C60.9692 38.9268 64.2813 40.2448 68.292 40.2448C72.3028 40.2448 75.6152 38.9268 78.2293 36.2907C80.8409 33.6545 82.1467 30.1477 82.1467 25.77C82.1467 21.3924 80.8409 17.8855 78.2293 15.2494ZM49.8543 7.16406C54.7757 2.38802 60.9216 0 68.292 0C75.6625 0 81.81 2.38802 86.7345 7.16406C91.6551 11.9441 94.1162 18.1461 94.1178 25.77C94.1194 33.3939 91.6583 39.5959 86.7345 44.376C81.814 49.152 75.6681 51.5409 68.2968 51.5425C60.9256 51.5441 54.7781 49.1553 49.8543 44.376C44.9314 39.5959 42.4707 33.3939 42.4723 25.77C42.4739 18.1461 44.9346 11.9441 49.8543 7.16406ZM46.5315 50.483H31.0683L10.8454 26.8295V50.483H0V1.05825H10.8454V22.8777L28.2644 1.05825H43.0285L22.8057 24.2111L46.5315 50.483Z" fill="white"/>
<path d="M193.141 1.0459H182.296V11.9884H193.141V1.0459Z" fill="white"/>
</svg>
