<svg width="555" height="180" viewBox="0 0 555 180" fill="none" xmlns="http://www.w3.org/2000/svg">
<g clip-path="url(#clip0_14_2)">
<path d="M555 112.184H520.255L474.807 59.6211V112.184H450.435V2.35166H474.807V50.8394L513.946 2.35166H547.148L501.71 53.8025L555 112.184ZM433.777 35.221V112.184H409.402V35.221H433.777ZM350.145 2.35704V89.2767H394.008V112.174H325.767V2.35166L350.145 2.35704ZM269.484 90.0579C274.305 90.0579 278.131 89.0388 280.962 87.0005C283.792 84.9622 285.206 82.0063 285.202 78.1326C285.202 70.186 279.91 66.2118 269.325 66.21H250.301V90.0579H269.484ZM268.694 24.4728H250.301V45.9718H268.54C272.319 45.9718 275.332 45.0047 277.58 43.0706C279.827 41.1365 280.955 38.4427 280.962 34.9893C280.962 31.7568 279.834 29.195 277.58 27.304C275.325 25.413 272.363 24.4693 268.694 24.4728ZM288.034 54.2847C303.022 56.7989 310.516 65.7943 310.516 81.2709C310.516 91.8394 307.007 99.6324 299.989 104.65C292.971 109.668 284.009 112.182 273.104 112.193H225.931V2.35166H271.528C281.799 2.35166 290.027 4.62699 296.21 9.17765C302.393 13.7283 305.487 20.5525 305.49 29.6503C305.49 42.099 299.672 50.2064 288.037 53.9723L288.034 54.2847ZM175.778 33.8876C169.908 28.0313 162.465 25.1032 153.45 25.1032C144.434 25.1032 136.992 28.0313 131.124 33.8876C125.254 39.7438 122.319 47.5369 122.319 57.2667C122.319 66.9966 125.254 74.7897 131.124 80.6459C136.996 86.5039 144.438 89.433 153.45 89.433C162.462 89.433 169.905 86.5039 175.778 80.6459C181.647 74.7879 184.581 66.9948 184.581 57.2667C184.581 47.5386 181.647 39.7456 175.778 33.8876ZM112.021 15.9201C123.079 5.30671 136.889 0 153.45 0C170.011 0 183.824 5.30671 194.889 15.9201C205.946 26.5426 211.476 40.3247 211.479 57.2667C211.483 74.2087 205.953 87.9909 194.889 98.6133C183.833 109.227 170.023 114.535 153.46 114.539C136.898 114.542 123.084 109.234 112.021 98.6133C100.959 87.9909 95.4301 74.2087 95.4337 57.2667C95.4373 40.3247 100.966 26.5426 112.021 15.9201ZM104.555 112.184H69.8092L24.3693 59.6211V112.184H0V2.35166H24.3693V50.8394L63.5091 2.35166H96.6834L51.2435 53.8025L104.555 112.184Z" fill="#40444E"/>
<path d="M433.98 2.32471H409.613V26.6413H433.98V2.32471Z" fill="#F28E00"/>
<path fill-rule="evenodd" clip-rule="evenodd" d="M450.335 146.247C449.132 146.22 447.935 146.435 446.818 146.88C445.7 147.325 444.683 147.99 443.829 148.836C442.992 149.665 442.328 150.651 441.875 151.738C441.421 152.824 441.188 153.989 441.188 155.166C441.188 156.343 441.421 157.508 441.875 158.595C442.328 159.681 442.992 160.667 443.829 161.497C444.683 162.343 445.699 163.009 446.817 163.453C447.935 163.898 449.131 164.113 450.335 164.085C452.924 164.085 455.103 163.222 456.872 161.497C457.713 160.67 458.38 159.684 458.836 158.597C459.292 157.51 459.526 156.344 459.526 155.166C459.526 153.988 459.292 152.822 458.836 151.735C458.38 150.648 457.713 149.663 456.872 148.836C456.013 147.989 454.991 147.323 453.867 146.878C452.744 146.433 451.543 146.219 450.335 146.247Z" fill="#40444E"/>
<path fill-rule="evenodd" clip-rule="evenodd" d="M516.867 145.733H514.357V153.814H516.951C518.707 153.814 519.967 153.509 520.73 152.898C521.493 152.288 521.875 151.246 521.877 149.773C521.877 148.313 521.48 147.272 520.687 146.649C519.893 146.026 518.62 145.72 516.867 145.733Z" fill="#40444E"/>
<path fill-rule="evenodd" clip-rule="evenodd" d="M414.993 145.385H413.559V153.488H414.952C418.494 153.488 420.264 152.106 420.264 149.342C420.264 146.706 418.507 145.387 414.993 145.385Z" fill="#40444E"/>
<path fill-rule="evenodd" clip-rule="evenodd" d="M336.373 128.552L300.472 180.003H553.761V128.552H336.373ZM396.395 167.862C393.485 170.807 389.457 172.28 384.31 172.28C379.163 172.28 375.009 170.708 371.847 167.566C368.7 164.425 367.125 160.294 367.123 155.174C367.123 150.146 368.755 146.039 372.017 142.853C375.28 139.667 379.469 138.071 384.585 138.063C388.03 138.063 391.07 138.853 393.706 140.431C396.274 141.934 398.294 144.216 399.472 146.945L391.439 150.29C389.934 146.853 387.53 145.135 384.226 145.135C381.887 145.135 379.923 146.103 378.334 148.038C376.745 149.974 375.947 152.348 375.939 155.161C375.939 158.178 376.737 160.661 378.334 162.609C379.93 164.558 381.951 165.533 384.396 165.534C386.363 165.534 387.994 165.023 389.287 163.999C389.93 163.527 390.449 162.907 390.801 162.193C391.154 161.478 391.329 160.69 391.312 159.894H384.437V153.275H401.202C401.202 159.74 399.6 164.602 396.395 167.862ZM421.593 171.418C417.855 165.384 415.177 161.216 413.559 158.916V171.418H405.103V138.925H417.63C421.285 138.925 424.107 139.802 426.095 141.555C428.084 143.307 429.079 145.821 429.08 149.097C429.107 151.126 428.479 153.109 427.288 154.754C426.031 156.518 424.13 157.72 421.995 158.102L432.222 171.423L421.593 171.418ZM463.2 167.409C459.78 170.654 455.489 172.278 450.324 172.28C445.159 172.281 440.875 170.658 437.473 167.409C434.062 164.161 432.353 160.081 432.344 155.172C432.335 150.262 434.044 146.182 437.473 142.934C440.881 139.685 445.165 138.061 450.324 138.061C455.483 138.061 459.775 139.685 463.2 142.934C466.619 146.182 468.328 150.262 468.328 155.172C468.328 160.081 466.619 164.161 463.2 167.409ZM500.515 158.832C500.515 163.223 499.309 166.563 496.898 168.85C494.486 171.138 490.977 172.281 486.37 172.28C481.758 172.28 478.236 171.137 475.805 168.85C473.374 166.564 472.158 163.225 472.156 158.832V138.925H480.613V156.777C480.613 162.177 482.502 164.877 486.281 164.877C490.132 164.877 492.059 162.177 492.061 156.777V138.925H500.517L500.515 158.832ZM519.24 160.643H514.346V171.418H505.902V138.925H518.805C522.613 138.925 525.547 139.848 527.608 141.692C529.668 143.536 530.698 146.177 530.698 149.614C530.7 156.966 526.884 160.643 519.251 160.643H519.24Z" fill="#40444E"/>
</g>
<defs>
<clipPath id="clip0_14_2">
<rect width="555" height="180" fill="white"/>
</clipPath>
</defs>
</svg>
