<svg width="492" height="51" viewBox="0 0 492 51" fill="none" xmlns="http://www.w3.org/2000/svg">
<g clip-path="url(#clip0_94_52)">
<path d="M248.296 49.9515H232.751L212.423 26.5535V49.9515H201.521V1.04725H212.423V22.6374L229.938 1.04725H244.778L224.45 23.9614L248.296 49.9515ZM194.059 15.6839V49.9515H183.158V15.6839H194.059ZM156.644 1.04229V39.752H176.27V49.9515H145.742V1.04725L156.644 1.04229ZM120.562 40.1007C122.718 40.1007 124.429 39.6457 125.696 38.7358C126.963 37.8258 127.595 36.5098 127.594 34.7875C127.594 31.2487 125.226 29.4793 120.491 29.4793H111.979V40.0982L120.562 40.1007ZM120.208 10.8968H111.979V20.4735H120.14C121.826 20.4735 123.174 20.0429 124.183 19.1818C125.193 18.3206 125.697 17.1212 125.696 15.5834C125.696 14.1416 125.192 13.0009 124.183 12.1612C123.175 11.3216 121.85 10.9002 120.208 10.8968ZM128.861 24.1736C135.565 25.2911 138.917 29.2957 138.917 36.1871C138.917 40.8931 137.346 44.3633 134.204 46.5976C131.061 48.8319 127.052 49.9486 122.176 49.9478H101.076V1.04725H121.475C126.07 1.04725 129.75 2.06017 132.517 4.08601C135.284 6.11184 136.668 9.1506 136.668 13.2023C136.668 18.7446 134.066 22.3545 128.861 24.0321V24.1736ZM78.6405 15.092C76.0146 12.4838 72.6833 11.1797 68.6465 11.1797C64.6098 11.1797 61.2805 12.4838 58.6587 15.092C56.0311 17.6986 54.7173 21.1679 54.7173 25.5C54.7173 29.8321 56.0307 33.3018 58.6575 35.9092C61.2851 38.5174 64.6143 39.8219 68.6453 39.8227C72.6762 39.8236 76.0075 38.5191 78.6393 35.9092C81.2636 33.3002 82.5757 29.8304 82.5757 25.5C82.5757 21.1696 81.2636 17.6994 78.6393 15.0896L78.6405 15.092ZM50.1163 7.08878C55.0634 2.36293 61.2414 0 68.6503 0C76.0592 0 82.2376 2.36293 87.1854 7.08878C92.1317 11.8188 94.6052 17.9558 94.606 25.5C94.6068 33.0442 92.1333 39.1808 87.1854 43.91C82.2384 48.635 76.06 50.9975 68.6503 50.9975C61.2405 50.9975 55.0625 48.635 50.1163 43.91C45.1676 39.1808 42.6941 33.0442 42.6958 25.5C42.6974 17.9558 45.1709 11.8188 50.1163 7.08878ZM46.7758 49.9515H31.2314L10.9022 26.5535V49.9515H0V1.04725H10.9022V22.6374L28.4155 1.04725H43.2579L22.9288 23.9614L46.7758 49.9515Z" fill="#40444E"/>
<path d="M194.154 1.03479H183.253V11.8621H194.154V1.03479Z" fill="#F28E00"/>
<path d="M302.864 46.3929C299.819 47.9182 296.867 49.0552 294.011 49.8039C291.251 50.542 288.406 50.9208 285.548 50.9305C282.8 50.9453 280.063 50.5722 277.421 49.8225C274.877 49.092 272.459 47.983 270.25 46.5331C266.688 44.2685 263.774 41.1316 261.786 37.4242C259.78 33.6952 258.777 29.6385 258.777 25.2543C258.785 21.9384 259.463 18.6579 260.771 15.6069C262.079 12.556 263.989 9.79658 266.39 7.49204C268.867 5.0537 271.82 3.14426 275.067 1.88108C278.3 0.627025 281.794 0 285.548 0C288.401 0.0121437 291.241 0.396358 293.993 1.14279C296.863 1.90548 299.82 3.06027 302.863 4.60715V8.68571C299.532 6.92623 296.439 5.62462 293.586 4.78086C290.733 3.93711 288.006 3.51523 285.406 3.51523C280.946 3.4879 276.576 4.76058 272.837 7.17564C269.834 9.16693 267.377 11.868 265.685 15.0362C263.984 18.2135 263.134 21.6779 263.134 25.4293C263.145 31.2239 265.403 36.7916 269.438 40.9767C271.451 43.0441 273.883 44.6628 276.574 45.7253C279.322 46.8271 282.291 47.3781 285.48 47.3781C287.658 47.3628 289.828 47.0913 291.942 46.5691C294.355 45.9751 296.708 45.1627 298.971 44.142V30.8814H288.525V27.4344H302.867L302.864 46.3929Z" fill="#40444E"/>
<path d="M313.524 0.844971H325.563C330.827 0.844971 334.864 1.90545 337.673 4.02642C340.483 6.14739 341.888 9.18946 341.888 13.1526C341.888 16.1777 341.103 18.6867 339.534 20.6794C337.964 22.6722 335.597 24.1752 332.433 25.1885C333.313 25.6926 334.133 26.2945 334.876 26.9828C335.623 27.6802 336.288 28.4585 336.86 29.3031L350.493 50.0557H345.996L338.099 37.9565C336.542 35.589 335.196 33.6368 334.062 32.0999C332.927 30.5629 332.031 29.4669 331.371 28.8117C330.497 27.944 329.34 27.3285 327.9 26.9654C326.461 26.6022 324.348 26.4202 321.562 26.4194H317.489V50.0508H313.524V0.844971ZM317.489 4.1505V23.0382H320.535C324.311 23.0382 326.931 22.9443 328.396 22.7565C329.861 22.5688 331.089 22.2523 332.079 21.8073C333.897 21.0107 335.261 19.8969 336.169 18.4658C337.078 17.0347 337.532 15.2645 337.532 13.1551C337.532 10.2938 336.512 8.07768 334.47 6.50681C332.429 4.93594 329.531 4.15009 325.775 4.14926L317.489 4.1505Z" fill="#40444E"/>
<path d="M351.238 25.2544C351.236 21.9586 351.91 18.697 353.22 15.6691C354.533 12.5997 356.447 9.82012 358.851 7.49209C363.765 2.70528 370.382 0.0382834 377.265 0.0707716C380.692 0.0535253 384.089 0.698306 387.269 1.96922C390.416 3.23305 393.275 5.11105 395.679 7.49209C398.177 9.93153 400.072 12.6692 401.363 15.705C402.658 18.7846 403.314 22.092 403.293 25.4293C403.299 27.9679 402.923 30.4932 402.177 32.9214C401.437 35.3309 400.32 37.6099 398.867 39.6751C396.411 43.2627 393.3 46.0339 389.535 47.9886C385.77 49.9433 381.68 50.9223 377.265 50.9256C373.824 50.9355 370.414 50.2784 367.226 48.9912C364.091 47.7419 361.244 45.875 358.856 43.503C356.426 41.118 354.501 38.2745 353.193 35.1398C351.886 32.0051 351.223 28.6424 351.243 25.2494L351.238 25.2544ZM355.593 25.4293C355.602 31.2242 357.86 36.7925 361.896 40.9767C363.907 42.9973 366.303 44.6001 368.943 45.6918C372.908 47.3831 377.296 47.8379 381.527 46.9958C385.758 46.1538 389.631 44.0547 392.633 40.9767C394.666 38.9464 396.268 36.5311 397.344 33.8743C398.429 31.1925 398.981 28.3271 398.968 25.4368C398.985 22.569 398.437 19.7256 397.356 17.0662C396.269 14.4201 394.662 12.0157 392.628 9.99358C390.613 7.95646 388.215 6.33175 385.57 5.21147C382.954 4.10069 380.139 3.52656 377.293 3.52357C374.448 3.52059 371.632 4.08881 369.013 5.1941C366.349 6.3213 363.931 7.95173 361.893 9.99482C359.873 11.9957 358.282 14.3828 357.218 17.0116C356.132 19.6862 355.58 22.5453 355.593 25.4293Z" fill="#40444E"/>
<path d="M415.546 29.6555C415.546 34.9314 417.033 39.1229 420.008 42.2299C422.983 45.3369 426.961 46.8904 431.942 46.8904C436.922 46.8904 440.899 45.3369 443.875 42.2299C446.851 39.1229 448.338 34.9314 448.337 29.6555V0.844971H452.48V29.4396C452.48 36.0523 450.627 41.2989 446.921 45.1793C443.215 49.0598 438.222 50.9991 431.942 50.9975C425.685 50.9975 420.715 49.0631 417.033 45.1942C413.352 41.3253 411.51 36.0726 411.508 29.4358V0.844971H415.546V29.6555Z" fill="#40444E"/>
<path d="M463.634 0.844971H475.675C481.058 0.844971 485.125 1.9584 487.874 4.18525C490.623 6.4121 491.997 9.69488 491.996 14.0336C491.996 18.0199 490.674 21.2047 488.03 23.5879C485.386 25.9711 481.846 27.161 477.411 27.1577H467.596V50.0508H463.629L463.634 0.844971ZM467.596 4.1505V23.7417H475.139C479.411 23.7417 482.563 22.9385 484.593 21.3321C486.624 19.7256 487.639 17.2225 487.639 13.8227C487.639 10.6569 486.642 8.25347 484.647 6.61228C482.652 4.9711 479.731 4.1505 475.882 4.1505H467.596Z" fill="#40444E"/>
</g>
<defs>
<clipPath id="clip0_94_52">
<rect width="492" height="51" fill="white"/>
</clipPath>
</defs>
</svg>
