<svg width="183" height="87" viewBox="0 0 183 87" fill="none" xmlns="http://www.w3.org/2000/svg">
<g clip-path="url(#clip0_238_79)">
<path d="M183 37.47H171.543L156.561 19.9185V37.47H148.526V0.78557H156.561V16.981L169.47 0.78557H180.407L165.425 17.9741L183 37.47ZM143.026 11.7649V37.47H134.992V11.7649H143.026ZM115.451 0.781847V29.8191H129.915V37.47H107.415V0.78557L115.451 0.781847ZM88.857 30.0806C90.4462 30.0806 91.7076 29.7393 92.6412 29.0568C93.5749 28.3742 94.0411 27.387 94.0398 26.0951C94.0398 23.4405 92.2947 22.1132 88.8046 22.1132H82.5316V30.0788L88.857 30.0806ZM88.5965 8.17402H82.5316V15.3577H88.5458C89.7888 15.3577 90.7823 15.0347 91.5262 14.3888C92.2702 13.7428 92.6419 12.8431 92.6412 11.6895C92.6412 10.608 92.2696 9.7523 91.5262 9.12248C90.7829 8.49265 89.8063 8.1765 88.5965 8.17402ZM94.9735 18.1333C99.9147 18.9716 102.385 21.9755 102.385 27.145C102.385 30.6751 101.227 33.2781 98.9114 34.9541C96.5955 36.6301 93.6405 37.4678 90.0466 37.4672H74.4955V0.78557H89.5301C92.9165 0.78557 95.6293 1.54539 97.6684 3.06503C99.7076 4.58466 100.727 6.86412 100.728 9.90339C100.728 14.0608 98.8098 16.7687 94.9735 18.0272V18.1333ZM57.96 11.321C56.0247 9.36448 53.5694 8.38624 50.5942 8.38624C47.619 8.38624 45.1653 9.36448 43.2329 11.321C41.2963 13.2762 40.328 15.8786 40.328 19.1283C40.328 22.3779 41.296 24.9806 43.232 26.9365C45.1686 28.893 47.6224 29.8715 50.5933 29.8721C53.5642 29.8727 56.0195 28.8942 57.9591 26.9365C59.8933 24.9794 60.8604 22.3766 60.8604 19.1283C60.8604 15.8799 59.8933 13.2768 57.9591 11.3191L57.96 11.321ZM36.937 5.31749C40.5831 1.7725 45.1364 0 50.597 0C56.0575 0 60.6111 1.7725 64.2579 5.31749C67.9033 8.86558 69.7264 13.4692 69.727 19.1283C69.7276 24.7873 67.9046 29.3906 64.2579 32.9381C60.6118 36.4825 56.0581 38.2546 50.597 38.2546C45.1358 38.2546 40.5825 36.4825 36.937 32.9381C33.2897 29.3906 31.4666 24.7873 31.4678 19.1283C31.4691 13.4692 33.2921 8.86558 36.937 5.31749ZM34.4749 37.47H23.0183L8.03522 19.9185V37.47H0V0.78557H8.03522V16.981L20.943 0.78557H31.8822L16.8991 17.9741L34.4749 37.47Z" fill="#40444E"/>
<path d="M143.096 0.776276H135.062V8.89817H143.096V0.776276Z" fill="#F28E00"/>
<path d="M34.5937 83.3197C32.2041 84.5384 29.8885 85.4466 27.6468 86.0441C25.4812 86.6334 23.2491 86.9356 21.0065 86.9432C18.8501 86.955 16.7031 86.6573 14.6295 86.059C12.6335 85.4757 10.7365 84.5901 9.00291 83.4324C6.14987 81.5597 3.93613 79.1347 2.36168 76.1575C0.787225 73.1802 0 69.9405 0 66.4384C0.0068625 63.7903 0.539076 61.1705 1.56515 58.7341C2.59122 56.2976 4.09031 54.0939 5.97371 52.2534C7.91691 50.3061 10.2337 48.7812 12.7816 47.7727C15.3191 46.7724 18.0608 46.2717 21.0065 46.2704C23.2463 46.2799 25.4751 46.5869 27.6358 47.1835C29.8866 47.7923 32.2069 48.7143 34.5965 49.9498V53.2075C31.9841 51.8033 29.5573 50.7639 27.3163 50.0894C25.0752 49.4149 22.9348 49.0783 20.8951 49.0795C17.3952 49.056 13.9655 50.0716 11.0313 52.0003C8.67324 53.5899 6.74318 55.7473 5.41482 58.2783C4.08283 60.8144 3.41714 63.5812 3.41776 66.5789C3.42503 71.2066 5.19655 75.6533 8.36392 78.9945C9.94249 80.6459 11.8508 81.9385 13.962 82.7864C16.1202 83.6669 18.4496 84.1072 20.9503 84.1072C22.6603 84.0932 24.3626 83.8745 26.0217 83.4556C27.9153 82.982 29.7618 82.3333 31.5378 81.5178V70.9331H23.3433V68.1798H34.5937V83.3197Z" fill="#40444E"/>
<path d="M42.9576 46.9443H52.4043C56.5347 46.9443 59.7024 47.7916 61.9072 49.4862C64.1121 51.1809 65.2145 53.6111 65.2145 56.777C65.2145 59.1926 64.5985 61.1963 63.3666 62.7879C62.1346 64.3795 60.2775 65.5777 57.7952 66.3825C58.4862 66.7845 59.1293 67.2652 59.7122 67.815C60.2979 68.3718 60.8199 68.9934 61.2682 69.6681L71.9662 86.2414H68.437L62.2414 76.5782C61.0199 74.6875 59.9642 73.1287 59.0741 71.902C58.1841 70.6752 57.48 69.7997 56.962 69.2753C56.2769 68.5828 55.3694 68.0914 54.2394 67.801C53.1093 67.5106 51.452 67.3654 49.2674 67.3654H46.0688V86.2414H42.9576V46.9443ZM46.0688 49.5849V64.669H48.4627C51.4268 64.669 53.4831 64.5942 54.6316 64.4446C55.7801 64.2951 56.7431 64.0419 57.5209 63.6851C58.9468 63.0491 60.0167 62.1599 60.7305 61.0175C61.4444 59.8752 61.7995 58.4617 61.7958 56.777C61.7958 54.4929 60.9948 52.7244 59.3927 51.4716C57.7906 50.2188 55.5176 49.5899 52.5738 49.5849H46.0688Z" fill="#40444E"/>
<path d="M72.5536 66.4384C72.5518 63.8064 73.0812 61.2017 74.1097 58.7837C75.14 56.3323 76.6423 54.1125 78.5292 52.2534C82.3854 48.4312 87.5777 46.3016 92.9782 46.3272C95.6645 46.3139 98.3278 46.8282 100.82 47.8416C103.289 48.8507 105.533 50.3503 107.419 52.2516C109.383 54.2 110.87 56.3864 111.879 58.8107C112.895 61.2703 113.41 63.9117 113.393 66.577C113.398 68.6044 113.102 70.621 112.517 72.56C111.936 74.4842 111.06 76.304 109.92 77.9529C107.993 80.8191 105.552 83.0337 102.598 84.5968C99.6437 86.1598 96.4353 86.942 92.9727 86.9432C90.2727 86.9514 87.5971 86.4269 85.0958 85.3991C82.6349 84.402 80.3992 82.9114 78.5237 81.017C76.6179 79.1116 75.1081 76.8405 74.0829 74.3369C73.0576 71.8334 72.5377 69.1479 72.5536 66.4384ZM75.9714 66.5789C75.9777 71.2061 77.7478 75.6527 80.9139 78.9944C82.4916 80.6076 84.3711 81.8871 86.4429 82.7585C89.5537 84.1089 92.9969 84.4721 96.3165 83.8C99.636 83.1278 102.675 81.4519 105.032 78.9944C106.627 77.3715 107.884 75.4406 108.727 73.3168C109.581 71.1743 110.015 68.8848 110.006 66.5752C110.018 64.2857 109.587 62.0159 108.738 59.8932C107.885 57.7807 106.624 55.8613 105.029 54.2471C103.446 52.6207 101.563 51.3241 99.486 50.431C97.4333 49.544 95.2244 49.0856 92.9921 49.0832C90.7597 49.0808 88.5499 49.5345 86.4954 50.417C84.4058 51.3171 82.5092 52.6192 80.9111 54.2509C79.329 55.8475 78.0834 57.7517 77.2494 59.8485C76.3933 61.9864 75.9579 64.2725 75.9677 66.5789H75.9714Z" fill="#40444E"/>
<path d="M123.01 69.9492C123.01 74.1625 124.176 77.5099 126.509 79.9913C128.841 82.4727 131.962 83.7137 135.872 83.7144C139.78 83.7144 142.901 82.4733 145.236 79.9913C147.571 77.5092 148.737 74.1619 148.735 69.9492V46.9443H151.986V69.7807C151.986 75.0619 150.532 79.2504 147.624 82.3461C144.715 85.4419 140.798 86.9932 135.871 87C130.96 87 127.062 85.4549 124.177 82.3648C121.292 79.2746 119.847 75.0799 119.842 69.7807V46.9443H123.01V69.9492Z" fill="#40444E"/>
<path d="M160.743 46.9443H170.191C174.414 46.9443 177.606 47.8338 179.766 49.6128C181.927 51.3918 183.006 54.0135 183.004 57.4778C183.004 60.6623 181.966 63.2045 179.892 65.1046C177.817 67.0046 175.038 67.9546 171.556 67.9546H163.859V86.2414H160.747L160.743 46.9443ZM163.855 49.5849V65.2302H169.774C173.126 65.2302 175.599 64.5889 177.193 63.3063C178.787 62.0237 179.585 60.0247 179.587 57.3094C179.587 54.7814 178.804 52.8618 177.239 51.5507C175.674 50.2395 173.381 49.5843 170.362 49.5849H163.855Z" fill="#40444E"/>
</g>
<defs>
<clipPath id="clip0_238_79">
<rect width="183" height="87" fill="white"/>
</clipPath>
</defs>
</svg>
