<svg width="24" height="24" viewBox="0 0 24 24" fill="none" xmlns="http://www.w3.org/2000/svg">
<path fill-rule="evenodd" clip-rule="evenodd" d="M23.2 4.3002C22.9 7.6002 21.5 15.5002 20.9 19.2002C20.6 20.7002 20 21.3002 19.5 21.3002C18.3 21.4002 17.4 20.5002 16.2 19.7002C14.4 18.5002 13.4 17.8002 11.6 16.6002C9.59999 15.3002 10.9 14.5002 12 13.3002C12.3 13.0002 17.6 8.2002 17.7 7.7002C17.7 7.6002 17.7 7.4002 17.6 7.3002C17.5 7.2002 17.3 7.2002 17.2 7.3002C17 7.3002 14.1 9.3002 8.49999 13.1002C7.59999 13.7002 6.89999 14.0002 6.19999 14.0002C5.49999 14.0002 3.99999 13.6002 2.99999 13.2002C1.69999 12.8002 0.699986 12.6002 0.799986 11.8002C0.799986 11.4002 1.39999 11.0002 2.29999 10.7002C8.29999 8.1002 12.4 6.3002 14.4 5.5002C20.1 3.1002 21.3 2.7002 22.1 2.7002C22.3 2.7002 22.7 2.7002 22.9 2.9002C23.1 3.1002 23.2 3.3002 23.2 3.5002C23.2 3.7002 23.2 4.0002 23.2 4.3002Z" fill="white"/>
<path fill-rule="evenodd" clip-rule="evenodd" d="M23.2 4.3002C22.9 7.6002 21.5 15.5002 20.9 19.2002C20.6 20.7002 20 21.3002 19.5 21.3002C18.3 21.4002 17.4 20.5002 16.2 19.7002C14.4 18.5002 13.4 17.8002 11.6 16.6002C9.59999 15.3002 10.9 14.5002 12 13.3002C12.3 13.0002 17.6 8.2002 17.7 7.7002C17.7 7.6002 17.7 7.4002 17.6 7.3002C17.5 7.2002 17.3 7.2002 17.2 7.3002C17 7.3002 14.1 9.3002 8.49999 13.1002C7.59999 13.7002 6.89999 14.0002 6.19999 14.0002C5.49999 14.0002 3.99999 13.6002 2.99999 13.2002C1.69999 12.8002 0.699986 12.6002 0.799986 11.8002C0.799986 11.4002 1.39999 11.0002 2.29999 10.7002C8.29999 8.1002 12.4 6.3002 14.4 5.5002C20.1 3.1002 21.3 2.7002 22.1 2.7002C22.3 2.7002 22.7 2.7002 22.9 2.9002C23.1 3.1002 23.2 3.3002 23.2 3.5002C23.2 3.7002 23.2 4.0002 23.2 4.3002Z" fill="white"/>
</svg>
