<svg width="24" height="24" viewBox="0 0 24 24" fill="none" xmlns="http://www.w3.org/2000/svg">
<g clip-path="url(#clip0_257_176)">
<path d="M22.3 1.7C20.65 0 17.9 0 12.5 0H11.5C6.1 0 3.4 0 1.7 1.7C0 3.4 0 6.1 0 11.5V12.5C0 17.95 0 20.65 1.7 22.35C3.4 24 6.1 24 11.5 24H12.5C17.95 24 20.65 24 22.35 22.3C24 20.65 24 17.9 24 12.5V11.5C24 6.1 24 3.4 22.3 1.7ZM17.2 17.3C16.6 15.4 15.05 13.95 13.05 13.75V17.3H12.75C7.3 17.3 4.15 13.55 4.05 7.3H6.8C6.9 11.9 8.9 13.8 10.5 14.2V7.3H13.1V11.25C14.7 11.1 16.35 9.3 16.9 7.3H19.5C19.05 9.75 17.25 11.55 16 12.3C17.3 12.9 19.35 14.45 20.1 17.3H17.2Z" fill="white"/>
</g>
<defs>
<clipPath id="clip0_257_176">
<rect width="24" height="24" fill="white"/>
</clipPath>
</defs>
</svg>
