<svg width="31" height="21" viewBox="0 0 31 21" fill="none" xmlns="http://www.w3.org/2000/svg">
<path d="M30.354 3.27886C29.9989 1.99023 28.9485 0.973637 27.612 0.625227C25.1955 2.1581e-07 15.5 0 15.5 0C15.5 0 5.80942 2.1581e-07 3.38801 0.625227C2.05647 0.968864 1.00605 1.98545 0.646039 3.27886C0 5.6175 0 10.5 0 10.5C0 10.5 0 15.3825 0.646039 17.7211C1.00111 19.0098 2.05154 20.0264 3.38801 20.3748C5.80942 21 15.5 21 15.5 21C15.5 21 25.1955 21 27.612 20.3748C28.9435 20.0311 29.994 19.0145 30.354 17.7211C31 15.3825 31 10.5 31 10.5C31 10.5 31 5.6175 30.354 3.27886Z" fill="white"/>
<path d="M12.403 15.0007L20.4563 10.5L12.403 5.99932V15.0007Z" fill="#F28E00"/>
</svg>
